<svg id="svg" version="1.1" xmlns="http://www.w3.org/2000/svg" xmlns:xlink="http://www.w3.org/1999/xlink" width="400" height="212.5" viewBox="0, 0, 400,212.5"><g id="svgg"><path id="path0" d="M70.098 26.354 C 69.784 26.447,69.474 26.470,69.408 26.404 C 69.342 26.338,69.288 26.432,69.288 26.614 C 69.288 26.884,68.905 26.959,67.166 27.028 C 65.492 27.096,64.988 27.189,64.775 27.472 C 64.567 27.749,64.127 27.839,62.847 27.866 C 61.659 27.891,61.216 27.973,61.286 28.155 C 61.340 28.295,61.273 28.422,61.138 28.437 C 61.003 28.453,60.452 28.506,59.913 28.555 C 59.374 28.604,58.588 28.808,58.166 29.009 C 57.743 29.209,57.079 29.395,56.688 29.421 C 55.860 29.476,55.415 29.703,55.588 29.983 C 55.658 30.095,55.233 30.181,54.606 30.181 C 53.807 30.181,53.427 30.282,53.234 30.545 C 53.087 30.746,52.694 30.925,52.360 30.943 C 51.426 30.993,51.382 31.012,51.495 31.308 C 51.567 31.494,51.383 31.601,50.934 31.634 C 49.709 31.723,49.415 31.822,49.439 32.136 C 49.452 32.308,49.356 32.457,49.227 32.468 C 49.097 32.479,48.637 32.510,48.205 32.537 C 47.773 32.564,47.425 32.643,47.433 32.712 C 47.481 33.145,47.339 33.311,46.918 33.314 C 45.903 33.321,45.676 33.376,45.803 33.583 C 45.954 33.826,45.082 34.212,44.706 34.069 C 44.570 34.018,44.396 34.174,44.319 34.416 C 44.197 34.802,43.699 34.986,43.074 34.876 C 42.976 34.858,42.846 35.038,42.784 35.276 C 42.704 35.581,42.495 35.707,42.069 35.707 C 41.737 35.707,41.388 35.847,41.291 36.020 C 41.195 36.192,40.927 36.368,40.696 36.413 C 39.981 36.550,39.530 36.805,39.652 37.004 C 39.717 37.109,39.622 37.194,39.440 37.194 C 39.259 37.194,38.991 37.386,38.845 37.620 C 38.669 37.902,38.350 38.045,37.894 38.045 C 37.371 38.045,37.237 38.121,37.330 38.363 C 37.411 38.574,37.323 38.682,37.072 38.682 C 36.862 38.682,36.482 38.879,36.226 39.118 C 35.971 39.358,35.558 39.570,35.309 39.589 C 35.036 39.609,34.857 39.768,34.857 39.988 C 34.857 40.203,34.660 40.383,34.378 40.426 C 34.115 40.466,33.917 40.596,33.939 40.715 C 33.960 40.835,33.770 40.948,33.517 40.967 C 33.263 40.986,33.023 41.102,32.982 41.225 C 32.941 41.347,32.820 41.394,32.713 41.328 C 32.606 41.262,32.519 41.357,32.519 41.539 C 32.519 41.721,32.386 41.870,32.225 41.870 C 32.063 41.870,31.881 42.062,31.819 42.295 C 31.753 42.549,31.529 42.721,31.265 42.721 C 31.021 42.721,30.702 42.912,30.556 43.146 C 30.410 43.379,30.160 43.571,30.001 43.571 C 29.841 43.571,29.761 43.702,29.822 43.863 C 29.884 44.024,29.823 44.152,29.686 44.148 C 28.931 44.127,28.693 44.243,28.693 44.633 C 28.693 44.867,28.553 45.058,28.382 45.058 C 28.210 45.058,27.966 45.252,27.840 45.489 C 27.713 45.727,27.525 45.869,27.422 45.805 C 27.320 45.742,27.177 45.874,27.106 46.098 C 27.035 46.323,26.837 46.561,26.666 46.626 C 26.495 46.692,26.355 46.885,26.355 47.056 C 26.355 47.227,26.140 47.397,25.877 47.435 C 25.542 47.482,25.413 47.631,25.445 47.928 C 25.471 48.162,25.441 48.239,25.379 48.099 C 25.210 47.723,24.655 48.016,24.655 48.482 C 24.655 48.703,24.529 48.884,24.376 48.884 C 24.223 48.884,23.913 49.035,23.686 49.219 C 23.459 49.403,23.417 49.491,23.592 49.416 C 23.875 49.293,23.875 49.310,23.592 49.569 C 23.417 49.729,23.140 49.999,22.976 50.169 C 22.717 50.439,22.700 50.438,22.845 50.159 C 22.936 49.984,22.715 50.175,22.353 50.584 C 21.992 50.994,21.692 51.496,21.688 51.700 C 21.680 52.034,21.443 52.169,20.988 52.097 C 20.901 52.084,20.829 52.274,20.829 52.520 C 20.829 52.835,20.732 52.931,20.503 52.843 C 20.287 52.760,20.110 52.895,19.977 53.245 C 19.867 53.535,19.679 53.773,19.559 53.773 C 19.439 53.773,19.341 53.863,19.341 53.974 C 19.341 54.260,18.381 55.260,18.107 55.260 C 17.981 55.260,17.810 55.371,17.727 55.506 C 17.624 55.671,17.672 55.694,17.874 55.575 C 18.080 55.454,18.066 55.526,17.828 55.808 C 17.639 56.033,17.527 56.336,17.580 56.482 C 17.633 56.629,17.522 56.748,17.333 56.748 C 17.144 56.748,16.921 56.934,16.837 57.161 C 16.753 57.387,16.589 57.555,16.472 57.532 C 16.355 57.510,16.229 57.709,16.191 57.973 C 16.153 58.238,16.034 58.400,15.925 58.333 C 15.817 58.266,15.728 58.318,15.728 58.448 C 15.728 58.579,15.608 58.617,15.462 58.533 C 15.316 58.449,15.262 58.453,15.342 58.542 C 15.526 58.747,14.779 60.192,14.232 60.687 C 14.003 60.895,13.815 61.187,13.815 61.336 C 13.815 61.484,13.694 61.733,13.547 61.887 C 13.399 62.042,13.115 62.407,12.916 62.699 C 12.717 62.991,12.338 63.513,12.073 63.858 C 11.795 64.220,11.725 64.416,11.907 64.320 C 12.176 64.179,12.176 64.196,11.902 64.437 C 11.727 64.592,11.449 64.978,11.286 65.296 C 11.122 65.613,10.908 65.823,10.810 65.763 C 10.712 65.702,10.685 65.790,10.749 65.959 C 10.966 66.522,11.667 66.525,160.800 66.525 C 259.660 66.525,309.477 66.596,309.564 66.738 C 309.637 66.854,309.594 66.950,309.471 66.950 C 309.347 66.950,309.245 67.081,309.245 67.240 C 309.245 67.400,309.054 67.774,308.820 68.071 C 308.587 68.368,308.395 68.806,308.395 69.043 C 308.395 69.281,308.290 69.541,308.161 69.620 C 308.032 69.700,307.792 70.064,307.627 70.430 C 307.461 70.795,307.246 71.238,307.148 71.413 C 307.050 71.589,306.775 72.163,306.537 72.689 C 306.299 73.215,305.902 74.086,305.655 74.625 C 305.409 75.164,305.207 75.799,305.207 76.037 C 305.207 76.274,305.064 76.524,304.888 76.591 C 304.713 76.658,304.570 76.933,304.570 77.202 C 304.570 77.470,304.378 78.047,304.145 78.483 C 303.911 78.919,303.719 79.494,303.719 79.761 C 303.719 80.027,303.579 80.446,303.407 80.691 C 303.236 80.936,303.032 81.555,302.954 82.067 C 302.876 82.578,302.694 83.140,302.548 83.316 C 302.403 83.491,302.216 84.105,302.133 84.679 C 302.050 85.254,301.858 85.924,301.707 86.167 C 301.555 86.411,301.381 87.136,301.318 87.779 C 301.256 88.422,301.054 89.235,300.870 89.586 C 300.651 90.001,300.545 90.704,300.565 91.605 C 300.581 92.365,300.631 92.699,300.676 92.349 C 300.774 91.568,301.512 88.271,301.912 86.823 C 302.074 86.238,302.273 85.386,302.355 84.929 C 302.437 84.473,302.633 83.851,302.792 83.548 C 302.950 83.245,303.080 82.820,303.081 82.604 C 303.081 82.388,303.219 81.910,303.387 81.541 C 303.555 81.173,303.788 80.537,303.905 80.128 C 304.274 78.842,304.776 77.492,305.104 76.907 C 305.278 76.596,305.420 76.215,305.420 76.058 C 305.420 75.902,305.766 75.056,306.190 74.178 C 306.614 73.301,307.352 71.769,307.831 70.776 C 308.311 69.782,308.968 68.511,309.293 67.950 C 309.617 67.390,309.883 66.757,309.883 66.544 C 309.883 66.331,310.054 65.929,310.264 65.650 C 310.473 65.372,310.764 64.904,310.912 64.612 C 311.551 63.343,311.832 62.912,312.020 62.912 C 312.131 62.912,312.221 62.768,312.221 62.593 C 312.221 62.418,312.412 62.083,312.646 61.849 C 312.880 61.615,313.071 61.379,313.071 61.324 C 313.071 61.181,314.818 58.634,315.197 58.225 C 315.372 58.036,315.659 57.661,315.834 57.391 C 316.307 56.665,317.127 55.673,317.906 54.883 C 318.286 54.498,318.597 54.148,318.597 54.105 C 318.597 53.889,320.271 52.098,322.952 49.446 C 326.480 45.957,326.533 45.909,326.851 45.909 C 326.987 45.909,327.099 45.765,327.099 45.590 C 327.099 45.414,327.191 45.271,327.303 45.271 C 327.415 45.271,327.678 45.099,327.888 44.889 C 328.476 44.299,330.437 42.721,330.582 42.721 C 330.654 42.721,330.896 42.553,331.122 42.349 C 332.236 41.337,333.590 40.383,333.910 40.383 C 334.021 40.383,334.113 40.304,334.113 40.208 C 334.113 40.019,335.744 38.895,336.019 38.895 C 336.111 38.895,336.313 38.741,336.469 38.554 C 336.625 38.366,336.947 38.125,337.186 38.017 C 337.424 37.910,338.002 37.590,338.470 37.307 C 338.937 37.023,339.542 36.690,339.814 36.567 C 340.086 36.444,340.451 36.200,340.626 36.025 C 340.801 35.850,341.166 35.707,341.438 35.707 C 341.709 35.707,341.981 35.576,342.043 35.415 C 342.104 35.255,342.425 35.056,342.754 34.973 C 343.084 34.891,343.403 34.756,343.462 34.675 C 343.666 34.397,345.841 33.369,346.224 33.369 C 346.435 33.369,346.659 33.234,346.722 33.070 C 346.785 32.906,347.154 32.702,347.541 32.618 C 347.929 32.533,348.435 32.333,348.666 32.173 C 348.896 32.012,349.233 31.881,349.413 31.881 C 349.593 31.881,350.098 31.690,350.534 31.456 C 350.970 31.222,351.471 31.031,351.647 31.031 C 351.823 31.031,352.324 30.840,352.761 30.606 C 353.197 30.372,353.806 30.181,354.115 30.181 C 354.424 30.181,354.796 30.037,354.942 29.862 C 355.088 29.685,355.551 29.543,355.980 29.543 C 356.406 29.543,357.111 29.352,357.548 29.118 C 357.984 28.884,358.680 28.693,359.096 28.693 C 359.511 28.693,360.131 28.548,360.473 28.371 C 360.815 28.195,361.695 27.990,362.428 27.917 C 363.162 27.843,364.020 27.653,364.336 27.494 C 364.652 27.335,365.417 27.204,366.036 27.203 C 367.843 27.199,368.707 26.994,368.825 26.540 C 368.937 26.112,71.541 25.927,70.098 26.354 M9.874 67.602 C 9.797 67.726,9.792 67.886,9.862 67.956 C 9.932 68.026,9.989 67.966,9.989 67.823 C 9.989 67.680,10.078 67.618,10.187 67.685 C 10.296 67.752,10.445 67.710,10.519 67.591 C 10.592 67.472,10.509 67.375,10.333 67.375 C 10.158 67.375,9.951 67.477,9.874 67.602 M7.808 71.753 C 7.638 71.923,7.860 72.476,8.099 72.476 C 8.204 72.476,8.289 72.285,8.289 72.051 C 8.289 71.637,8.064 71.497,7.808 71.753 M6.589 75.027 C 6.589 75.143,6.473 75.215,6.332 75.186 C 6.190 75.157,6.059 75.367,6.040 75.654 L 6.005 76.175 6.403 75.684 C 6.785 75.212,6.919 74.814,6.695 74.814 C 6.637 74.814,6.589 74.910,6.589 75.027 M5.509 77.238 C 5.699 77.467,5.693 77.561,5.482 77.646 C 5.307 77.716,5.343 77.762,5.579 77.773 C 5.815 77.783,5.951 77.634,5.951 77.365 C 5.951 77.114,5.809 76.939,5.606 76.939 C 5.334 76.939,5.314 77.003,5.509 77.238 M4.791 79.292 C 4.868 79.416,4.754 79.661,4.538 79.835 C 4.171 80.130,4.176 80.136,4.623 79.919 C 5.107 79.685,5.290 79.065,4.876 79.065 C 4.752 79.065,4.714 79.167,4.791 79.292 M3.974 81.551 C 3.670 81.630,3.642 81.713,3.840 81.952 C 4.188 82.371,4.372 82.328,4.372 81.828 C 4.372 81.594,4.369 81.414,4.365 81.427 C 4.360 81.441,4.185 81.497,3.974 81.551 M3.080 83.916 C 3.137 83.973,3.066 84.167,2.921 84.345 C 2.699 84.619,2.717 84.648,3.040 84.527 C 3.254 84.446,3.370 84.469,3.302 84.579 C 3.236 84.686,3.259 84.822,3.353 84.880 C 3.448 84.939,3.545 84.722,3.570 84.399 C 3.600 83.998,3.513 83.812,3.295 83.812 C 3.119 83.812,3.023 83.859,3.080 83.916 M2.406 86.805 C 2.268 86.963,2.189 87.270,2.231 87.488 C 2.272 87.707,2.313 87.963,2.322 88.057 C 2.367 88.538,2.681 87.920,2.725 87.263 C 2.782 86.421,2.765 86.397,2.406 86.805 M1.886 89.798 C 1.872 89.857,1.843 90.024,1.823 90.170 C 1.804 90.316,1.672 90.412,1.531 90.383 C 1.390 90.353,1.275 90.425,1.275 90.542 C 1.275 90.659,1.467 90.755,1.700 90.755 C 2.012 90.755,2.125 90.613,2.125 90.223 C 2.125 89.765,1.966 89.481,1.886 89.798 M300.158 93.518 C 300.041 93.810,299.879 95.244,299.797 96.706 C 299.715 98.167,299.548 99.745,299.426 100.213 C 299.305 100.680,299.145 102.210,299.071 103.613 L 298.937 106.164 149.734 106.270 L 0.531 106.376 0.554 111.265 C 0.579 116.775,0.619 117.322,1.003 117.322 C 1.206 117.322,1.275 117.852,1.275 119.400 C 1.275 120.899,1.364 121.605,1.592 121.931 C 1.771 122.185,1.943 123.008,1.986 123.806 C 2.032 124.655,2.172 125.296,2.334 125.396 C 2.489 125.492,2.534 125.679,2.439 125.833 C 2.330 126.008,2.358 126.049,2.518 125.950 C 2.771 125.794,2.819 126.048,2.828 127.577 C 2.831 128.079,2.933 128.374,3.104 128.374 C 3.253 128.374,3.444 128.484,3.527 128.619 C 3.629 128.784,3.580 128.809,3.380 128.695 C 3.139 128.557,3.133 128.579,3.348 128.810 C 3.494 128.968,3.613 129.556,3.613 130.117 C 3.613 130.958,3.680 131.137,3.996 131.137 C 4.307 131.137,4.375 131.302,4.356 132.011 C 4.342 132.554,4.476 133.066,4.709 133.362 C 4.915 133.624,5.107 134.184,5.135 134.606 C 5.164 135.028,5.227 135.333,5.275 135.284 C 5.486 135.074,5.951 135.834,5.951 136.388 C 5.951 136.721,6.090 137.192,6.260 137.435 C 6.430 137.677,6.615 138.127,6.670 138.435 C 6.803 139.166,6.996 139.462,7.241 139.311 C 7.350 139.244,7.439 139.469,7.439 139.813 C 7.439 140.435,7.884 141.036,8.149 140.770 C 8.226 140.693,8.289 140.933,8.289 141.304 C 8.289 141.693,8.468 142.156,8.714 142.402 C 8.948 142.635,9.139 143.061,9.139 143.348 C 9.139 143.634,9.287 143.951,9.468 144.053 C 9.649 144.154,9.826 144.505,9.861 144.834 C 9.896 145.162,10.083 145.519,10.276 145.627 C 10.469 145.735,10.627 145.962,10.627 146.132 C 10.627 146.301,10.794 146.441,10.999 146.443 C 11.284 146.446,11.304 146.489,11.087 146.626 C 10.856 146.773,10.862 146.828,11.120 146.927 C 11.317 147.003,11.475 146.894,11.543 146.638 C 11.666 146.167,309.883 145.969,309.883 146.440 C 309.883 146.557,310.050 146.821,310.255 147.027 C 310.460 147.234,310.750 147.640,310.901 147.931 C 311.409 148.909,313.255 151.765,313.510 151.966 C 313.584 152.024,313.768 152.305,313.918 152.590 C 314.205 153.134,314.424 153.431,315.037 154.107 C 315.242 154.332,315.409 154.607,315.409 154.718 C 315.409 154.830,315.531 154.997,315.680 155.090 C 315.829 155.184,316.106 155.499,316.295 155.792 C 316.484 156.084,316.936 156.651,317.299 157.052 C 317.663 157.453,317.960 157.860,317.960 157.955 C 317.960 158.051,318.110 158.130,318.294 158.130 C 318.596 158.130,318.596 158.098,318.290 157.792 C 318.105 157.607,317.692 157.105,317.372 156.677 C 317.052 156.248,316.695 155.786,316.578 155.649 C 316.461 155.513,316.174 155.155,315.940 154.854 C 315.707 154.554,315.339 154.092,315.123 153.828 C 314.907 153.564,314.492 152.941,314.200 152.444 C 313.907 151.947,313.582 151.541,313.476 151.541 C 313.370 151.541,313.284 151.449,313.284 151.337 C 313.284 151.224,312.768 150.374,312.137 149.448 C 311.506 148.521,310.931 147.579,310.860 147.354 C 310.788 147.129,310.400 146.584,309.997 146.144 C 309.593 145.704,309.208 145.168,309.140 144.954 C 309.072 144.741,308.877 144.449,308.706 144.308 C 308.535 144.166,308.395 143.882,308.395 143.677 C 308.395 143.472,308.258 143.190,308.090 143.051 C 307.922 142.911,307.725 142.524,307.651 142.189 C 307.578 141.855,307.381 141.467,307.213 141.328 C 307.045 141.188,306.908 140.908,306.908 140.704 C 306.908 140.500,306.716 140.090,306.482 139.793 C 306.249 139.496,306.057 139.077,306.056 138.861 C 306.055 138.646,305.865 138.183,305.632 137.832 C 305.400 137.481,305.209 136.991,305.209 136.742 C 305.208 136.494,305.071 136.177,304.905 136.039 C 304.739 135.901,304.540 135.417,304.463 134.963 C 304.387 134.509,304.188 134.024,304.022 133.886 C 303.855 133.748,303.719 133.381,303.719 133.069 C 303.719 132.757,303.528 132.127,303.294 131.668 C 303.061 131.210,302.869 130.612,302.869 130.341 C 302.869 130.069,302.733 129.635,302.567 129.376 C 302.401 129.117,302.195 128.427,302.111 127.843 C 302.026 127.258,301.839 126.589,301.694 126.355 C 301.550 126.121,301.381 125.404,301.318 124.761 C 301.256 124.118,301.054 123.305,300.870 122.954 C 300.671 122.577,300.533 121.789,300.533 121.021 C 300.532 120.308,300.397 119.448,300.233 119.108 C 300.068 118.766,299.834 117.165,299.710 115.515 C 299.586 113.879,299.378 111.873,299.249 111.058 C 299.119 110.244,299.065 108.905,299.128 108.083 C 299.191 107.261,299.330 105.489,299.437 104.145 C 299.544 102.800,299.740 100.313,299.872 98.618 C 300.004 96.923,300.215 95.085,300.341 94.533 C 300.604 93.383,300.482 92.705,300.158 93.518 M0.798 95.182 C 0.455 95.318,0.459 95.349,0.851 95.594 C 1.222 95.826,1.275 95.806,1.275 95.432 C 1.275 95.197,1.251 95.012,1.222 95.020 C 1.193 95.028,1.002 95.101,0.798 95.182 M13.411 150.347 C 13.222 150.574,13.241 150.670,13.491 150.766 C 13.714 150.851,13.815 150.759,13.815 150.472 C 13.815 149.976,13.738 149.952,13.411 150.347 M13.999 151.306 C 14.202 151.435,14.216 151.524,14.046 151.606 C 13.881 151.685,13.886 151.706,14.062 151.671 C 14.488 151.588,14.519 151.116,14.098 151.119 C 13.797 151.122,13.775 151.164,13.999 151.306 M15.564 153.706 C 15.695 154.100,16.153 154.166,16.153 153.790 C 16.153 153.605,16.002 153.454,15.817 153.454 C 15.631 153.454,15.518 153.567,15.564 153.706 M17.123 155.982 C 17.059 156.087,17.149 156.227,17.323 156.294 C 17.516 156.368,17.641 156.293,17.641 156.104 C 17.641 155.760,17.309 155.682,17.123 155.982 M18.105 156.771 C 18.189 157.250,18.902 158.002,19.093 157.811 C 19.171 157.733,19.067 157.548,18.863 157.398 C 18.658 157.249,18.491 157.023,18.491 156.897 C 18.491 156.770,18.389 156.604,18.264 156.527 C 18.129 156.443,18.065 156.541,18.105 156.771 M318.597 158.482 C 318.597 158.753,325.608 165.994,325.871 165.994 C 325.962 165.994,326.400 166.352,326.845 166.791 C 328.590 168.510,333.603 172.313,333.828 172.087 C 333.884 172.032,333.677 171.810,333.369 171.594 C 329.489 168.872,326.862 166.608,322.370 162.114 C 320.295 160.037,318.597 158.403,318.597 158.482 M21.138 160.239 C 21.203 160.345,21.136 160.480,20.990 160.539 C 20.824 160.606,20.859 160.653,21.082 160.663 C 21.566 160.686,21.759 160.331,21.348 160.173 C 21.167 160.104,21.073 160.134,21.138 160.239 M25.015 164.429 C 24.788 164.656,24.840 164.973,25.080 164.825 C 25.197 164.752,25.292 164.788,25.292 164.904 C 25.292 165.020,25.484 165.176,25.717 165.250 C 25.951 165.324,26.142 165.506,26.142 165.654 C 26.142 165.802,26.273 165.923,26.432 165.923 C 26.608 165.923,26.682 165.770,26.620 165.536 C 26.565 165.323,26.440 165.197,26.344 165.257 C 26.247 165.316,25.942 165.121,25.665 164.823 C 25.389 164.525,25.096 164.348,25.015 164.429 M334.113 172.310 C 334.113 172.483,336.299 174.025,337.301 174.559 C 337.476 174.652,338.002 174.961,338.470 175.245 C 338.937 175.529,339.559 175.882,339.851 176.029 C 340.143 176.177,340.509 176.418,340.663 176.565 C 340.818 176.712,341.105 176.832,341.301 176.830 C 341.516 176.827,341.363 176.648,340.914 176.376 C 340.505 176.129,339.929 175.761,339.635 175.560 C 339.340 175.358,338.886 175.125,338.625 175.042 C 338.364 174.959,338.151 174.802,338.151 174.693 C 338.151 174.584,338.038 174.495,337.901 174.495 C 337.696 174.495,335.441 173.091,334.378 172.302 C 334.213 172.180,334.113 172.183,334.113 172.310 M35.960 173.166 C 36.048 173.617,36.475 173.740,36.622 173.356 C 36.695 173.167,36.578 173.007,36.317 172.939 C 36.012 172.859,35.913 172.922,35.960 173.166 M41.172 176.472 C 41.072 176.734,41.145 176.833,41.439 176.833 C 41.935 176.833,42.182 176.494,41.841 176.284 C 41.686 176.188,41.649 176.222,41.744 176.375 C 41.827 176.510,41.802 176.621,41.688 176.621 C 41.574 176.621,41.442 176.506,41.396 176.366 C 41.343 176.206,41.259 176.246,41.172 176.472 M342.160 177.245 C 342.436 177.486,342.832 177.683,343.040 177.683 C 343.248 177.683,343.471 177.818,343.534 177.982 C 343.597 178.146,343.935 178.344,344.286 178.421 C 344.636 178.498,345.037 178.698,345.176 178.866 C 345.315 179.034,345.642 179.171,345.902 179.171 C 346.162 179.171,346.595 179.362,346.865 179.596 C 347.135 179.830,347.512 180.021,347.703 180.021 C 347.894 180.021,348.426 180.213,348.884 180.446 C 349.343 180.680,349.877 180.871,350.072 180.871 C 350.267 180.871,350.535 181.003,350.669 181.164 C 350.802 181.324,351.280 181.515,351.730 181.587 C 352.180 181.659,352.668 181.862,352.815 182.038 C 352.965 182.220,353.427 182.359,353.879 182.359 C 354.318 182.359,354.792 182.498,354.933 182.668 C 355.074 182.837,355.635 183.034,356.181 183.105 C 356.727 183.175,357.427 183.371,357.737 183.540 C 358.048 183.709,358.621 183.837,359.013 183.825 L 359.724 183.803 359.068 183.647 C 358.707 183.560,358.280 183.408,358.119 183.309 C 357.958 183.210,357.440 183.059,356.968 182.975 C 356.497 182.890,355.632 182.653,355.048 182.447 C 354.463 182.241,353.459 181.889,352.816 181.665 C 352.173 181.440,351.376 181.122,351.045 180.958 C 350.715 180.793,350.346 180.659,350.227 180.659 C 350.108 180.659,349.662 180.503,349.235 180.312 C 348.808 180.121,348.077 179.797,347.609 179.592 C 347.141 179.386,346.215 178.969,345.550 178.663 C 344.885 178.358,344.239 178.108,344.115 178.108 C 343.991 178.108,343.889 178.027,343.889 177.928 C 343.889 177.829,343.483 177.573,342.986 177.359 C 341.628 176.774,341.620 176.773,342.160 177.245 M44.369 177.825 C 44.516 177.884,44.592 178.004,44.538 178.091 C 44.484 178.179,44.579 178.250,44.749 178.250 C 44.919 178.250,45.058 178.123,45.058 177.967 C 45.058 177.810,44.845 177.691,44.580 177.700 C 44.317 177.709,44.222 177.765,44.369 177.825 M46.027 178.868 C 46.254 179.052,46.306 179.133,46.141 179.048 C 45.945 178.946,45.895 178.977,45.995 179.138 C 46.234 179.526,46.546 179.424,46.546 178.959 C 46.546 178.663,46.405 178.533,46.081 178.533 C 45.624 178.533,45.623 178.540,46.027 178.868 M47.680 179.702 C 47.680 179.839,47.807 179.950,47.963 179.950 C 48.119 179.950,48.247 179.839,48.247 179.702 C 48.247 179.566,48.119 179.454,47.963 179.454 C 47.807 179.454,47.680 179.566,47.680 179.702 M53.071 182.007 C 52.992 182.214,53.108 182.265,53.493 182.191 C 53.883 182.117,53.948 182.042,53.739 181.909 C 53.341 181.656,53.197 181.678,53.071 182.007 M55.898 182.584 C 55.898 182.708,55.778 182.742,55.632 182.659 C 55.433 182.547,55.426 182.574,55.606 182.769 C 55.878 183.064,57.009 183.246,56.836 182.967 C 56.774 182.866,56.561 182.783,56.364 182.781 C 56.054 182.778,56.048 182.749,56.323 182.572 C 56.596 182.396,56.588 182.365,56.270 182.362 C 56.065 182.361,55.898 182.460,55.898 182.584 M360.149 184.003 C 360.383 184.062,360.763 184.243,360.993 184.404 C 361.241 184.577,361.892 184.686,362.587 184.671 L 363.762 184.644 362.684 184.486 C 362.091 184.399,361.404 184.220,361.157 184.087 C 360.910 183.955,360.487 183.858,360.216 183.872 C 359.779 183.894,359.772 183.908,360.149 184.003 M61.327 184.257 C 61.260 184.366,61.295 184.511,61.406 184.580 C 61.517 184.648,61.665 184.611,61.735 184.497 C 61.805 184.384,62.027 184.343,62.228 184.408 C 62.538 184.507,62.545 184.490,62.274 184.295 C 61.880 184.012,61.488 183.996,61.327 184.257 M63.974 184.839 C 63.974 184.870,64.177 185.003,64.425 185.136 C 64.790 185.331,64.843 185.323,64.703 185.090 C 64.561 184.855,64.590 184.852,64.865 185.075 C 65.141 185.298,65.222 185.288,65.327 185.015 C 65.429 184.750,65.307 184.694,64.714 184.734 C 64.307 184.762,63.974 184.809,63.974 184.839 M364.153 184.988 C 364.403 185.190,365.297 185.357,366.632 185.451 C 368.425 185.579,368.735 185.656,368.825 185.998 C 368.905 186.306,369.118 186.394,369.746 186.381 C 370.196 186.371,370.444 186.316,370.298 186.257 C 370.151 186.198,370.032 186.026,370.032 185.875 C 370.032 185.554,369.110 185.337,367.721 185.330 C 367.180 185.327,366.355 185.223,365.887 185.100 C 364.229 184.661,363.706 184.627,364.153 184.988 M70.988 185.664 C 70.988 185.902,71.520 186.291,71.945 186.365 C 72.420 186.447,72.399 186.420,71.573 185.903 C 71.251 185.702,70.988 185.594,70.988 185.664 " stroke="none" fill="#b4db64" fill-rule="evenodd"></path><path id="path1" d="M372.370 26.387 C 372.370 26.500,372.250 26.521,372.104 26.433 C 371.924 26.325,371.932 26.389,372.130 26.633 C 372.291 26.831,372.386 27.000,372.343 27.009 C 372.299 27.018,372.072 27.069,371.838 27.122 C 371.605 27.176,370.409 27.318,369.182 27.437 C 367.954 27.557,366.472 27.785,365.887 27.945 C 365.303 28.104,364.299 28.298,363.656 28.376 C 363.013 28.454,362.077 28.653,361.576 28.818 C 361.075 28.983,360.406 29.119,360.088 29.119 C 359.771 29.120,359.244 29.260,358.918 29.430 C 358.592 29.600,357.874 29.832,357.324 29.946 C 356.218 30.173,354.560 30.704,353.528 31.160 C 353.160 31.323,352.705 31.456,352.518 31.456 C 352.330 31.456,351.820 31.647,351.384 31.881 C 350.948 32.115,350.443 32.306,350.263 32.306 C 350.083 32.306,349.747 32.437,349.516 32.598 C 349.285 32.758,348.792 32.956,348.421 33.036 C 348.049 33.117,347.631 33.321,347.491 33.489 C 347.352 33.657,347.109 33.794,346.952 33.794 C 346.696 33.794,345.379 34.373,344.527 34.860 C 344.127 35.089,342.190 36.049,341.764 36.229 C 341.589 36.304,341.063 36.597,340.595 36.882 C 340.128 37.166,339.506 37.518,339.214 37.664 C 338.921 37.810,338.623 38.012,338.552 38.113 C 338.419 38.298,337.839 38.657,336.876 39.150 C 336.583 39.299,336.218 39.542,336.063 39.689 C 335.909 39.837,335.701 39.957,335.600 39.957 C 335.500 39.957,335.292 40.078,335.137 40.226 C 334.490 40.844,332.100 42.508,331.859 42.508 C 331.715 42.508,331.566 42.596,331.527 42.703 C 331.488 42.810,330.834 43.393,330.074 43.998 C 328.064 45.600,326.603 46.877,324.790 48.618 C 323.908 49.466,323.160 50.159,323.128 50.159 C 323.096 50.159,322.661 50.604,322.162 51.148 C 321.662 51.692,320.963 52.439,320.607 52.807 C 320.252 53.176,319.155 54.476,318.171 55.697 C 317.186 56.918,316.277 58.013,316.149 58.130 C 316.022 58.247,315.637 58.773,315.292 59.299 C 314.948 59.825,314.618 60.303,314.559 60.361 C 314.249 60.669,312.646 63.167,312.646 63.344 C 312.646 63.457,312.552 63.549,312.436 63.549 C 312.321 63.549,312.079 63.860,311.897 64.240 C 311.339 65.412,310.886 66.190,310.591 66.485 C 310.435 66.641,310.308 66.955,310.308 67.184 C 310.308 67.414,310.165 67.656,309.989 67.723 C 309.814 67.791,309.671 68.020,309.671 68.233 C 309.671 68.446,309.540 68.751,309.380 68.911 C 309.220 69.071,309.017 69.436,308.930 69.723 C 308.842 70.010,308.645 70.388,308.493 70.563 C 308.341 70.739,308.151 71.141,308.072 71.458 C 307.993 71.774,307.794 72.145,307.631 72.281 C 307.467 72.417,307.330 72.732,307.328 72.980 C 307.325 73.229,307.136 73.672,306.908 73.964 C 306.679 74.256,306.490 74.641,306.487 74.820 C 306.485 74.998,306.357 75.333,306.203 75.564 C 306.049 75.794,305.806 76.389,305.663 76.886 C 305.520 77.383,305.322 77.790,305.223 77.790 C 305.124 77.790,304.980 78.212,304.902 78.729 C 304.825 79.245,304.623 79.783,304.453 79.924 C 304.283 80.064,304.145 80.481,304.145 80.850 C 304.145 81.219,304.004 81.721,303.833 81.966 C 303.661 82.211,303.458 82.830,303.382 83.342 C 303.306 83.853,303.124 84.466,302.977 84.702 C 302.830 84.939,302.639 85.656,302.552 86.296 C 302.465 86.936,302.262 87.718,302.100 88.034 C 301.939 88.350,301.807 88.992,301.807 89.461 C 301.807 89.931,301.661 90.743,301.483 91.266 C 301.306 91.790,301.075 93.108,300.970 94.196 C 300.866 95.284,300.669 96.461,300.534 96.812 C 300.198 97.681,299.992 111.715,300.280 114.134 C 300.521 116.159,300.876 118.572,301.179 120.244 C 301.734 123.303,301.854 123.876,302.125 124.761 C 302.286 125.287,302.481 126.132,302.559 126.638 C 302.636 127.144,302.833 127.814,302.996 128.126 C 303.159 128.438,303.296 128.932,303.300 129.224 C 303.305 129.516,303.494 130.138,303.719 130.606 C 303.945 131.073,304.133 131.707,304.137 132.014 C 304.141 132.322,304.288 132.692,304.463 132.837 C 304.639 132.983,304.782 133.307,304.782 133.557 C 304.782 133.808,304.973 134.370,305.207 134.806 C 305.441 135.242,305.632 135.748,305.632 135.929 C 305.632 136.111,305.812 136.614,306.032 137.046 C 306.251 137.478,306.629 138.262,306.870 138.789 C 307.743 140.688,308.433 142.105,309.042 143.252 C 309.384 143.895,309.665 144.540,309.667 144.687 C 309.669 144.833,309.761 144.952,309.872 144.952 C 310.072 144.952,310.427 145.513,311.041 146.797 C 311.219 147.169,311.467 147.537,311.593 147.615 C 311.719 147.693,311.913 147.962,312.025 148.214 C 312.246 148.714,312.601 149.274,313.656 150.785 C 314.036 151.329,314.346 151.866,314.346 151.977 C 314.346 152.088,314.426 152.179,314.523 152.179 C 314.620 152.179,315.022 152.681,315.415 153.294 C 315.808 153.908,316.195 154.458,316.276 154.516 C 316.356 154.575,317.061 155.435,317.842 156.429 C 318.624 157.422,319.400 158.312,319.568 158.405 C 319.735 158.499,319.872 158.666,319.872 158.777 C 319.872 158.887,321.379 160.465,323.220 162.282 C 326.925 165.939,326.718 165.746,328.441 167.133 C 330.066 168.441,330.242 168.588,330.669 168.994 C 331.089 169.394,333.003 170.748,334.910 171.995 C 335.640 172.473,336.238 172.944,336.238 173.042 C 336.238 173.140,336.418 173.220,336.637 173.220 C 336.857 173.220,337.163 173.373,337.319 173.561 C 337.475 173.748,337.797 173.992,338.036 174.103 C 338.274 174.214,338.852 174.535,339.320 174.816 C 339.787 175.098,340.457 175.474,340.808 175.651 C 341.158 175.829,341.613 176.072,341.817 176.191 C 343.017 176.891,345.523 178.108,345.763 178.108 C 345.873 178.108,346.082 178.252,346.227 178.427 C 346.373 178.603,346.708 178.746,346.971 178.746 C 347.235 178.746,347.570 178.889,347.715 179.065 C 347.861 179.240,348.139 179.384,348.334 179.384 C 348.529 179.384,349.052 179.569,349.498 179.796 C 349.943 180.023,350.578 180.269,350.909 180.341 C 351.241 180.414,351.626 180.611,351.765 180.779 C 351.904 180.947,352.320 181.084,352.689 181.084 C 353.057 181.084,353.553 181.220,353.789 181.385 C 354.026 181.551,354.597 181.757,355.059 181.842 C 355.520 181.928,356.089 182.117,356.323 182.262 C 356.557 182.407,357.190 182.588,357.729 182.664 C 358.268 182.740,358.890 182.938,359.111 183.105 C 359.331 183.272,359.894 183.416,360.361 183.424 C 360.829 183.433,361.594 183.579,362.062 183.749 C 362.529 183.919,363.438 184.114,364.081 184.183 C 364.724 184.251,365.680 184.437,366.206 184.596 C 366.732 184.755,368.450 184.991,370.024 185.121 C 372.800 185.350,373.469 185.535,373.373 186.046 C 373.338 186.226,374.869 186.291,379.171 186.291 C 383.641 186.291,385.004 186.230,384.965 186.033 C 384.934 185.874,385.049 185.827,385.266 185.910 C 385.501 186.000,385.566 185.963,385.463 185.796 C 385.360 185.628,385.522 185.539,385.960 185.521 C 386.317 185.506,386.777 185.484,386.982 185.472 C 387.187 185.460,387.423 185.280,387.506 185.073 C 387.643 184.736,388.292 184.576,389.104 184.680 C 389.258 184.700,389.314 184.579,389.241 184.387 C 389.172 184.207,389.197 184.052,389.297 184.043 C 389.927 183.987,390.332 183.841,390.397 183.645 C 390.438 183.521,390.559 183.473,390.666 183.539 C 390.773 183.605,390.861 183.569,390.861 183.459 C 390.861 183.349,391.052 183.209,391.286 183.148 C 391.520 183.087,391.711 182.884,391.711 182.698 C 391.711 182.393,391.956 182.264,392.402 182.334 C 392.489 182.348,392.561 182.227,392.561 182.065 C 392.561 181.903,392.762 181.719,393.008 181.654 C 393.271 181.585,393.393 181.439,393.305 181.296 C 393.217 181.154,393.339 181.008,393.602 180.939 C 393.848 180.874,394.049 180.681,394.049 180.508 C 394.049 180.335,394.240 180.144,394.474 180.083 C 394.708 180.022,394.899 179.839,394.899 179.678 C 394.899 179.516,395.090 179.384,395.324 179.384 C 395.608 179.384,395.749 179.242,395.749 178.959 C 395.749 178.725,395.850 178.533,395.973 178.533 C 396.096 178.533,396.296 178.247,396.419 177.896 C 396.541 177.546,396.726 177.311,396.830 177.376 C 396.934 177.440,396.963 177.344,396.893 177.163 C 396.823 176.982,396.872 176.833,397.002 176.833 C 397.131 176.833,397.237 176.695,397.237 176.526 C 397.237 176.358,397.428 176.086,397.661 175.923 C 397.894 175.760,398.035 175.576,397.974 175.515 C 397.801 175.342,398.277 174.244,398.473 174.365 C 398.568 174.424,398.668 174.023,398.693 173.474 C 398.760 172.060,398.891 171.728,399.320 171.889 C 399.646 172.011,399.651 171.986,399.362 171.625 C 399.177 171.393,399.155 171.292,399.309 171.385 C 399.519 171.511,399.575 170.402,399.575 166.112 C 399.575 162.633,399.499 160.680,399.362 160.680 C 399.245 160.680,399.150 160.579,399.150 160.455 C 399.150 160.331,399.269 160.288,399.416 160.359 C 399.562 160.429,399.466 160.328,399.203 160.133 C 398.911 159.916,398.725 159.553,398.725 159.199 C 398.725 158.881,398.572 158.314,398.386 157.941 C 398.059 157.286,397.925 156.834,397.891 156.270 C 397.882 156.124,397.752 156.004,397.602 156.004 C 397.451 156.004,397.151 155.703,396.933 155.335 C 396.657 154.867,396.627 154.712,396.834 154.820 C 396.997 154.904,396.963 154.836,396.759 154.668 C 396.554 154.501,396.387 154.207,396.387 154.015 C 396.387 153.823,396.250 153.666,396.082 153.666 C 395.915 153.666,395.717 153.475,395.643 153.241 C 395.569 153.007,395.371 152.816,395.204 152.816 C 395.036 152.816,394.899 152.628,394.899 152.398 C 394.899 152.106,394.799 152.018,394.568 152.107 C 394.349 152.190,394.198 152.087,394.123 151.801 C 394.061 151.563,393.818 151.317,393.583 151.256 C 393.333 151.191,393.218 151.045,393.305 150.903 C 393.393 150.761,393.271 150.614,393.008 150.545 C 392.762 150.481,392.561 150.296,392.561 150.135 C 392.561 149.869,392.299 149.748,391.870 149.815 C 391.783 149.829,391.711 149.694,391.711 149.515 C 391.711 149.336,391.544 149.127,391.339 149.050 C 391.134 148.973,390.840 148.761,390.686 148.579 C 390.453 148.304,390.428 148.301,390.542 148.565 C 390.618 148.741,390.529 148.699,390.345 148.472 C 390.161 148.245,390.011 148.128,390.011 148.213 C 390.011 148.439,389.084 147.916,388.884 147.578 C 388.791 147.420,388.552 147.290,388.353 147.289 C 388.154 147.288,387.718 147.145,387.383 146.970 C 387.048 146.795,386.450 146.652,386.054 146.652 C 385.569 146.652,385.335 146.553,385.335 146.346 C 385.335 146.178,385.224 145.972,385.089 145.888 C 384.923 145.785,384.902 145.833,385.024 146.035 C 385.166 146.272,385.140 146.283,384.897 146.092 C 384.721 145.952,383.664 145.835,382.402 145.815 C 380.034 145.778,379.519 145.679,379.744 145.302 C 379.830 145.159,379.750 145.172,379.551 145.333 C 379.281 145.552,379.194 145.553,379.123 145.340 C 379.070 145.179,378.648 145.070,378.061 145.066 C 377.525 145.062,377.131 145.130,377.185 145.218 C 377.239 145.306,377.182 145.377,377.058 145.377 C 376.934 145.377,376.833 145.296,376.833 145.196 C 376.833 145.096,375.709 145.000,374.336 144.981 C 372.570 144.958,371.776 144.867,371.626 144.672 C 371.509 144.520,370.889 144.369,370.247 144.337 C 368.976 144.272,368.686 144.176,368.870 143.877 C 368.937 143.769,368.828 143.744,368.627 143.822 C 368.379 143.917,368.311 143.882,368.416 143.713 C 368.524 143.537,368.286 143.464,367.600 143.464 C 367.004 143.464,366.631 143.369,366.631 143.216 C 366.631 143.080,366.572 143.028,366.500 143.100 C 366.427 143.172,366.229 143.093,366.059 142.923 C 365.795 142.658,364.822 142.487,364.214 142.598 C 364.112 142.616,364.085 142.484,364.154 142.304 C 364.254 142.043,364.109 141.977,363.436 141.977 C 362.924 141.977,362.614 141.883,362.646 141.739 C 362.675 141.608,362.365 141.380,361.955 141.233 C 361.546 141.085,361.233 140.866,361.259 140.744 C 361.285 140.623,360.919 140.459,360.447 140.379 C 359.849 140.278,359.532 140.095,359.404 139.777 C 359.302 139.526,359.213 139.448,359.206 139.604 C 359.197 139.789,358.964 139.696,358.538 139.339 C 358.179 139.036,357.783 138.789,357.659 138.789 C 357.535 138.789,357.014 138.402,356.501 137.929 C 355.988 137.456,355.480 137.124,355.372 137.191 C 355.264 137.258,355.072 137.119,354.945 136.882 C 354.818 136.645,354.564 136.451,354.380 136.451 C 354.165 136.451,354.091 136.333,354.172 136.121 C 354.245 135.932,354.209 135.846,354.089 135.921 C 353.973 135.992,353.879 135.944,353.879 135.813 C 353.879 135.682,353.783 135.634,353.666 135.707 C 353.549 135.779,353.454 135.694,353.454 135.519 C 353.454 135.126,352.613 134.507,352.324 134.686 C 352.208 134.757,352.175 134.716,352.251 134.593 C 352.327 134.470,352.241 134.313,352.061 134.244 C 351.881 134.175,351.762 133.950,351.797 133.744 C 351.836 133.507,351.741 133.388,351.537 133.420 C 351.360 133.448,351.117 133.257,350.998 132.995 C 350.879 132.733,350.665 132.543,350.524 132.572 C 350.292 132.619,350.175 132.362,350.238 131.942 C 350.250 131.858,350.118 131.845,349.944 131.911 C 349.637 132.029,349.532 131.786,349.619 131.161 C 349.646 130.968,349.538 130.914,349.306 131.003 C 349.061 131.097,348.916 131.006,348.840 130.713 C 348.778 130.479,348.648 130.287,348.551 130.287 C 348.453 130.287,348.214 129.953,348.021 129.545 C 347.827 129.137,347.590 128.851,347.495 128.910 C 347.317 129.020,346.955 128.198,347.041 127.880 C 347.067 127.784,346.989 127.766,346.869 127.840 C 346.748 127.915,346.588 127.802,346.512 127.591 C 346.437 127.379,346.239 127.046,346.073 126.852 C 345.906 126.657,345.751 126.364,345.726 126.201 C 345.702 126.037,345.480 125.645,345.232 125.329 C 344.961 124.985,344.826 124.583,344.894 124.324 C 344.956 124.087,344.923 123.908,344.820 123.927 C 344.267 124.028,344.102 123.853,344.102 123.167 C 344.102 122.647,344.006 122.423,343.783 122.423 C 343.439 122.423,343.436 122.417,343.382 121.467 C 343.339 120.709,343.087 120.243,342.812 120.413 C 342.623 120.530,342.519 119.784,342.607 118.948 C 342.630 118.731,342.454 118.348,342.218 118.096 C 341.952 117.814,341.751 117.247,341.693 116.618 C 341.605 115.673,341.343 114.955,341.336 115.639 C 341.333 115.887,341.296 115.884,341.126 115.622 C 341.013 115.446,340.919 114.665,340.917 113.886 C 340.914 112.360,340.769 111.729,340.467 111.916 C 340.119 112.131,340.230 101.540,340.583 100.830 C 340.756 100.483,340.909 99.487,340.933 98.555 C 340.966 97.311,341.062 96.835,341.321 96.643 C 341.510 96.502,341.697 96.052,341.736 95.643 C 341.775 95.234,341.917 94.829,342.051 94.743 C 342.185 94.657,342.200 94.584,342.083 94.580 C 341.966 94.577,341.984 94.501,342.123 94.413 C 342.262 94.325,342.427 93.967,342.490 93.619 C 342.751 92.176,342.868 91.847,343.159 91.735 C 343.328 91.670,343.464 91.341,343.464 90.996 C 343.464 90.640,343.600 90.323,343.783 90.253 C 343.983 90.176,344.102 89.851,344.102 89.380 C 344.102 88.821,344.193 88.629,344.456 88.629 C 344.651 88.629,344.749 88.568,344.674 88.493 C 344.516 88.334,345.177 87.141,345.423 87.141 C 345.515 87.141,345.590 87.011,345.590 86.851 C 345.590 86.692,345.781 86.318,346.015 86.021 C 346.249 85.723,346.440 85.328,346.440 85.142 C 346.440 84.956,346.582 84.803,346.756 84.803 C 346.930 84.803,347.212 84.469,347.383 84.060 C 347.554 83.650,347.804 83.316,347.940 83.316 C 348.075 83.316,348.129 83.168,348.060 82.989 C 347.980 82.780,348.093 82.603,348.372 82.500 C 348.613 82.411,348.802 82.271,348.794 82.189 C 348.746 81.738,348.807 81.615,349.082 81.615 C 349.250 81.615,349.448 81.423,349.523 81.187 C 349.598 80.952,349.741 80.810,349.841 80.872 C 350.031 80.989,350.356 80.603,350.378 80.234 C 350.385 80.117,350.506 80.045,350.647 80.074 C 350.788 80.104,350.903 79.936,350.903 79.702 C 350.903 79.466,351.045 79.277,351.222 79.277 C 351.397 79.277,351.541 79.176,351.541 79.052 C 351.541 78.928,351.651 78.895,351.786 78.979 C 351.933 79.069,351.974 79.037,351.889 78.900 C 351.811 78.773,351.926 78.543,352.146 78.389 C 352.366 78.234,352.559 78.013,352.575 77.896 C 352.591 77.779,352.699 77.671,352.816 77.657 C 352.933 77.642,353.113 77.618,353.216 77.604 C 353.320 77.589,353.457 77.376,353.521 77.131 C 353.585 76.885,353.733 76.743,353.849 76.815 C 353.966 76.887,354.122 76.753,354.197 76.517 C 354.273 76.277,354.518 76.089,354.756 76.089 C 354.990 76.089,355.119 75.992,355.045 75.872 C 354.971 75.753,355.253 75.513,355.670 75.338 C 356.088 75.164,356.429 74.969,356.429 74.905 C 356.429 74.841,356.319 74.857,356.184 74.941 C 356.032 75.035,355.996 74.999,356.090 74.847 C 356.174 74.712,356.416 74.601,356.628 74.601 C 357.062 74.601,357.564 74.107,357.348 73.891 C 357.272 73.814,357.377 73.751,357.582 73.751 C 357.788 73.751,358.198 73.561,358.493 73.329 C 358.788 73.097,359.103 72.952,359.193 73.008 C 359.283 73.064,359.487 72.943,359.646 72.739 C 359.915 72.397,359.905 72.393,359.511 72.689 C 359.117 72.984,359.107 72.980,359.378 72.635 C 359.538 72.431,359.834 72.264,360.036 72.264 C 360.237 72.264,360.575 72.072,360.786 71.838 C 360.998 71.605,361.389 71.413,361.654 71.413 C 361.920 71.413,362.301 71.250,362.500 71.051 C 362.699 70.852,363.113 70.673,363.418 70.653 C 364.448 70.588,364.531 70.564,364.409 70.365 C 364.249 70.108,364.467 69.985,365.250 69.894 C 365.600 69.853,366.014 69.676,366.169 69.501 C 366.419 69.217,366.435 69.217,366.312 69.501 C 366.212 69.732,366.255 69.722,366.467 69.465 C 366.638 69.257,367.195 69.066,367.811 69.004 C 368.389 68.946,368.911 68.889,368.969 68.877 C 369.028 68.866,368.932 68.764,368.757 68.650 C 368.399 68.419,368.385 68.422,370.138 68.346 C 370.840 68.315,371.437 68.264,371.467 68.231 C 371.496 68.199,371.607 68.160,371.714 68.146 C 371.822 68.131,371.989 68.032,372.086 67.926 C 372.189 67.813,372.152 67.796,371.998 67.885 C 371.852 67.969,371.732 67.937,371.732 67.813 C 371.732 67.605,372.647 67.556,376.567 67.553 C 377.181 67.553,377.683 67.458,377.683 67.342 C 377.683 67.094,378.793 67.185,378.985 67.449 C 379.163 67.695,380.067 67.196,379.908 66.939 C 379.832 66.816,380.754 66.738,382.270 66.738 C 384.299 66.738,384.802 66.675,385.004 66.399 C 385.143 66.208,385.618 66.039,386.090 66.010 C 387.180 65.945,387.923 65.695,387.770 65.447 C 387.702 65.338,387.829 65.250,388.050 65.250 C 388.271 65.250,388.524 65.178,388.611 65.090 C 388.699 65.003,388.858 64.931,388.966 64.931 C 389.073 64.931,389.155 64.848,389.148 64.747 C 389.133 64.521,390.244 63.925,390.397 64.077 C 390.458 64.138,390.693 64.020,390.919 63.816 C 391.145 63.611,391.392 63.443,391.468 63.443 C 391.543 63.443,391.580 63.370,391.550 63.280 C 391.520 63.190,391.735 63.007,392.028 62.874 C 392.321 62.740,392.561 62.503,392.561 62.346 C 392.561 62.190,392.681 62.060,392.827 62.058 C 393.148 62.054,393.918 61.253,394.116 60.720 C 394.194 60.508,394.348 60.390,394.457 60.457 C 394.566 60.525,394.717 60.387,394.792 60.152 C 394.867 59.916,395.058 59.724,395.218 59.724 C 395.377 59.724,395.569 59.531,395.644 59.296 C 395.719 59.060,395.870 58.923,395.980 58.991 C 396.089 59.059,396.237 58.825,396.308 58.471 C 396.379 58.117,396.541 57.848,396.668 57.872 C 396.795 57.897,396.916 57.821,396.937 57.705 C 397.037 57.152,397.302 56.536,397.440 56.536 C 397.665 56.536,398.087 55.529,398.090 54.985 C 398.093 54.647,398.144 54.596,398.273 54.800 C 398.502 55.160,398.718 54.434,398.722 53.294 C 398.724 52.759,398.821 52.497,399.019 52.497 C 399.180 52.497,399.370 52.282,399.439 52.019 C 399.595 51.432,399.580 40.519,399.424 40.676 C 399.189 40.910,398.725 40.173,398.725 39.565 C 398.725 39.216,398.605 38.882,398.459 38.823 C 398.252 38.739,398.254 38.712,398.467 38.699 C 398.649 38.688,398.598 38.528,398.315 38.225 C 398.081 37.973,397.931 37.701,397.981 37.620 C 398.031 37.538,397.899 37.285,397.686 37.057 C 397.474 36.829,397.236 36.299,397.157 35.879 C 397.063 35.377,396.873 35.079,396.602 35.008 C 396.317 34.934,396.217 34.762,396.277 34.448 C 396.329 34.178,396.277 34.049,396.149 34.128 C 396.030 34.202,395.881 34.064,395.818 33.822 C 395.755 33.581,395.522 33.325,395.301 33.255 C 395.080 33.185,394.899 32.991,394.899 32.823 C 394.899 32.656,394.708 32.519,394.474 32.519 C 394.191 32.519,394.049 32.377,394.049 32.094 C 394.049 31.860,393.977 31.690,393.889 31.716 C 393.663 31.784,392.561 30.711,392.561 30.422 C 392.561 30.289,392.370 30.181,392.136 30.181 C 391.893 30.181,391.711 30.039,391.711 29.849 C 391.711 29.667,391.615 29.577,391.498 29.649 C 391.382 29.722,391.286 29.663,391.286 29.520 C 391.286 29.377,391.225 29.320,391.151 29.394 C 391.077 29.468,390.835 29.297,390.612 29.014 C 390.390 28.731,390.075 28.551,389.913 28.613 C 389.751 28.675,389.420 28.527,389.177 28.284 C 388.913 28.021,388.457 27.841,388.045 27.839 C 387.586 27.837,387.449 27.776,387.637 27.657 C 388.005 27.423,387.472 27.190,386.304 27.071 C 385.843 27.024,385.303 26.810,385.102 26.595 C 384.689 26.152,372.370 25.950,372.370 26.387 " stroke="none" fill="#dbf3a3" fill-rule="evenodd"></path><path id="path2" d="M71.467 26.289 C 71.671 26.342,72.006 26.342,72.210 26.289 C 72.415 26.235,72.248 26.192,71.838 26.192 C 71.429 26.192,71.262 26.235,71.467 26.289 M55.382 29.664 C 54.958 30.088,54.962 30.181,55.402 30.181 C 55.597 30.181,55.693 30.118,55.616 30.041 C 55.540 29.964,55.583 29.773,55.713 29.616 C 56.042 29.220,55.789 29.257,55.382 29.664 M35.829 39.036 C 35.769 39.192,35.801 39.320,35.900 39.320 C 35.999 39.320,36.186 39.192,36.315 39.036 C 36.492 38.823,36.475 38.753,36.244 38.753 C 36.075 38.753,35.889 38.881,35.829 39.036 M24.008 48.688 C 23.792 49.091,23.810 49.109,24.213 48.893 C 24.456 48.763,24.655 48.564,24.655 48.452 C 24.655 48.087,24.251 48.234,24.008 48.688 M17.322 56.111 C 16.802 56.653,16.770 56.748,17.105 56.748 C 17.322 56.748,17.434 56.684,17.355 56.605 C 17.276 56.526,17.421 56.239,17.676 55.967 C 17.931 55.695,18.093 55.473,18.036 55.473 C 17.979 55.473,17.658 55.760,17.322 56.111 M13.220 61.679 C 13.080 61.819,12.965 62.073,12.965 62.243 C 12.965 62.453,13.101 62.394,13.390 62.062 C 13.964 61.400,13.821 61.078,13.220 61.679 M12.115 63.257 C 12.115 63.539,12.172 63.554,12.434 63.337 C 12.609 63.191,12.752 63.036,12.752 62.992 C 12.752 62.948,12.609 62.912,12.434 62.912 C 12.258 62.912,12.115 63.067,12.115 63.257 M10.665 66.157 C 10.609 66.884,10.507 67.056,10.131 67.056 C 9.995 67.056,9.861 67.343,9.834 67.694 C 9.752 68.736,9.718 68.827,9.444 68.722 C 9.300 68.666,9.187 68.747,9.194 68.901 C 9.242 70.003,9.131 70.396,8.839 70.154 C 8.451 69.832,8.365 70.018,8.310 71.302 C 8.285 71.883,8.217 72.406,8.159 72.464 C 8.007 72.617,7.660 71.997,7.784 71.795 C 7.842 71.702,7.781 71.626,7.648 71.626 C 7.503 71.626,7.435 71.903,7.476 72.317 C 7.534 72.897,7.468 73.018,7.067 73.075 C 6.676 73.131,6.589 73.278,6.589 73.879 C 6.589 74.337,6.468 74.661,6.270 74.737 C 6.095 74.804,5.951 74.945,5.951 75.049 C 5.951 75.291,6.433 75.200,6.639 74.920 C 6.737 74.786,6.796 74.800,6.798 74.957 C 6.800 75.094,6.575 75.477,6.298 75.807 C 5.921 76.256,5.820 76.582,5.897 77.099 C 5.982 77.672,5.932 77.787,5.603 77.773 C 5.377 77.763,5.322 77.710,5.474 77.648 C 5.762 77.532,5.630 77.152,5.301 77.152 C 5.191 77.152,5.101 77.476,5.101 77.871 C 5.101 78.380,4.991 78.619,4.725 78.688 C 4.504 78.746,4.330 79.016,4.303 79.343 C 4.268 79.767,4.335 79.869,4.585 79.773 C 4.765 79.704,4.863 79.516,4.801 79.356 C 4.740 79.196,4.782 79.065,4.895 79.065 C 5.269 79.065,5.109 79.683,4.676 79.915 C 4.442 80.040,4.251 80.330,4.251 80.560 C 4.251 80.790,4.107 80.978,3.932 80.978 C 3.757 80.978,3.613 81.132,3.613 81.321 C 3.613 81.546,3.744 81.631,3.993 81.566 C 4.256 81.497,4.372 81.587,4.372 81.860 C 4.372 82.316,4.226 82.356,3.868 81.998 C 3.647 81.777,3.437 83.974,3.593 84.872 C 3.610 84.969,3.524 84.986,3.402 84.911 C 3.281 84.836,3.236 84.686,3.302 84.579 C 3.368 84.471,3.293 84.433,3.135 84.493 C 2.977 84.554,2.841 84.816,2.833 85.076 C 2.759 87.463,2.451 89.189,2.311 88.004 C 2.297 87.880,2.273 87.691,2.258 87.584 C 2.109 86.492,1.913 87.470,1.994 88.900 C 2.093 90.652,2.075 90.755,1.670 90.755 C 1.319 90.755,1.251 90.879,1.290 91.445 C 1.395 92.980,1.265 94.793,1.050 94.793 C 0.926 94.793,0.884 94.697,0.956 94.580 C 1.029 94.463,0.998 94.368,0.887 94.368 C 0.777 94.368,0.635 94.568,0.571 94.814 C 0.476 95.174,0.533 95.239,0.865 95.153 C 1.174 95.071,1.275 95.155,1.275 95.493 C 1.275 95.841,1.219 95.884,1.020 95.685 C 0.592 95.257,0.425 95.396,0.425 96.182 C 0.425 96.886,0.455 96.919,0.903 96.707 L 1.382 96.481 0.903 96.832 C 0.433 97.177,0.425 97.258,0.425 101.779 L 0.425 106.376 149.681 106.270 L 298.937 106.164 299.071 103.613 C 299.145 102.210,299.305 100.680,299.426 100.213 C 299.548 99.745,299.712 98.167,299.790 96.706 C 299.874 95.143,300.056 93.795,300.232 93.432 C 300.397 93.092,300.532 92.232,300.533 91.519 C 300.533 90.751,300.671 89.963,300.870 89.586 C 301.054 89.235,301.256 88.422,301.318 87.779 C 301.381 87.136,301.555 86.411,301.707 86.167 C 301.858 85.924,302.050 85.254,302.133 84.679 C 302.216 84.105,302.403 83.491,302.548 83.316 C 302.694 83.140,302.876 82.578,302.954 82.067 C 303.032 81.555,303.236 80.936,303.407 80.691 C 303.579 80.446,303.719 80.027,303.719 79.761 C 303.719 79.494,303.911 78.919,304.145 78.483 C 304.378 78.047,304.570 77.470,304.570 77.202 C 304.570 76.933,304.713 76.658,304.888 76.591 C 305.064 76.524,305.207 76.274,305.207 76.037 C 305.207 75.799,305.409 75.164,305.655 74.625 C 305.902 74.086,306.299 73.215,306.537 72.689 C 306.775 72.163,307.050 71.589,307.148 71.413 C 307.246 71.238,307.461 70.795,307.627 70.430 C 307.792 70.064,308.032 69.700,308.161 69.620 C 308.290 69.541,308.395 69.281,308.395 69.043 C 308.395 68.806,308.587 68.368,308.820 68.071 C 309.054 67.774,309.245 67.400,309.245 67.240 C 309.245 67.081,309.347 66.950,309.471 66.950 C 309.594 66.950,309.637 66.854,309.564 66.738 C 309.477 66.596,259.660 66.525,160.800 66.525 C 13.136 66.525,10.716 66.516,10.925 65.972 C 10.985 65.816,10.962 65.644,10.874 65.590 C 10.787 65.536,10.692 65.791,10.665 66.157 M2.892 83.652 C 2.667 84.238,2.744 84.446,3.082 84.166 C 3.430 83.877,3.515 83.316,3.211 83.316 C 3.106 83.316,2.963 83.467,2.892 83.652 M2.125 86.610 C 1.909 86.871,1.923 86.929,2.206 86.929 C 2.395 86.929,2.550 86.785,2.550 86.610 C 2.550 86.435,2.514 86.291,2.470 86.291 C 2.426 86.291,2.271 86.435,2.125 86.610 M0.425 116.791 C 0.425 117.200,0.502 117.535,0.595 117.535 C 0.688 117.535,0.726 117.200,0.678 116.791 C 0.630 116.382,0.554 116.047,0.508 116.047 C 0.462 116.047,0.425 116.382,0.425 116.791 M11.543 146.638 C 11.475 146.894,11.317 147.003,11.120 146.927 C 10.862 146.828,10.856 146.773,11.087 146.626 C 11.304 146.489,11.284 146.446,10.999 146.443 C 10.485 146.439,10.529 147.092,11.052 147.229 C 11.446 147.332,11.593 147.776,11.486 148.541 C 11.459 148.734,11.586 148.799,11.851 148.730 C 12.183 148.643,12.240 148.715,12.161 149.126 C 12.094 149.476,12.163 149.628,12.389 149.628 C 12.608 149.628,12.677 149.491,12.601 149.203 C 12.540 148.969,12.586 148.778,12.704 148.778 C 12.822 148.778,12.913 148.897,12.908 149.044 C 12.845 150.727,12.953 151.025,13.645 151.077 C 14.526 151.144,14.654 151.293,14.146 151.665 C 13.787 151.927,13.781 151.966,14.093 151.966 C 14.302 151.966,14.464 152.144,14.479 152.391 C 14.531 153.221,14.581 153.347,14.839 153.293 C 14.982 153.263,15.191 153.478,15.302 153.771 C 15.414 154.064,15.651 154.304,15.829 154.304 C 16.011 154.304,16.153 154.490,16.153 154.729 C 16.153 154.965,16.295 155.154,16.472 155.154 C 16.652 155.154,16.791 155.345,16.791 155.593 C 16.791 155.936,16.884 156.003,17.216 155.898 C 17.635 155.765,17.775 156.128,17.653 157.030 C 17.632 157.185,17.812 157.364,18.053 157.427 C 18.294 157.490,18.491 157.674,18.491 157.836 C 18.491 157.997,18.623 158.130,18.785 158.130 C 18.947 158.130,19.129 158.321,19.190 158.556 C 19.265 158.840,19.414 158.938,19.640 158.852 C 19.895 158.754,19.979 158.855,19.979 159.264 C 19.979 159.691,20.068 159.788,20.404 159.724 C 20.711 159.665,20.829 159.756,20.829 160.055 C 20.829 160.282,20.930 160.468,21.054 160.468 C 21.178 160.468,21.221 160.373,21.149 160.257 C 21.075 160.137,21.160 160.101,21.348 160.173 C 21.529 160.243,21.621 160.389,21.554 160.498 C 21.486 160.608,21.682 160.894,21.988 161.135 C 22.367 161.434,22.480 161.652,22.342 161.818 C 22.118 162.088,22.576 162.901,22.816 162.661 C 22.892 162.584,22.954 162.640,22.954 162.784 C 22.954 162.954,23.124 163.000,23.433 162.915 C 23.873 162.794,23.882 162.807,23.539 163.084 C 23.058 163.471,23.067 163.656,23.567 163.656 C 23.787 163.656,24.016 163.840,24.074 164.065 C 24.151 164.359,24.337 164.457,24.735 164.413 C 25.378 164.342,25.783 164.725,25.592 165.223 C 25.516 165.420,25.566 165.569,25.707 165.569 C 25.843 165.569,25.899 165.479,25.832 165.369 C 25.764 165.259,25.907 165.184,26.151 165.203 C 26.463 165.226,26.564 165.347,26.494 165.615 C 26.439 165.824,26.464 165.951,26.549 165.899 C 26.635 165.846,26.859 165.983,27.048 166.204 C 27.293 166.491,27.319 166.634,27.139 166.707 C 27.000 166.764,27.101 166.818,27.365 166.827 C 27.695 166.839,27.843 166.975,27.843 167.269 C 27.843 167.503,27.976 167.694,28.139 167.694 C 28.302 167.694,28.492 167.844,28.562 168.026 C 28.633 168.209,28.858 168.342,29.063 168.321 C 29.809 168.245,30.203 168.336,30.068 168.554 C 29.975 168.705,29.825 168.690,29.606 168.508 C 29.332 168.281,29.294 168.304,29.363 168.657 C 29.409 168.894,29.627 169.085,29.866 169.098 C 30.523 169.133,31.031 169.411,31.031 169.736 C 31.031 169.899,31.174 170.032,31.350 170.032 C 31.525 170.032,31.668 170.175,31.668 170.351 C 31.668 170.528,31.857 170.670,32.094 170.670 C 32.369 170.670,32.519 170.811,32.519 171.072 C 32.519 171.325,32.718 171.524,33.059 171.609 C 33.356 171.684,33.547 171.827,33.485 171.929 C 33.354 172.141,33.854 172.370,34.449 172.370 C 34.673 172.370,34.857 172.513,34.857 172.689 C 34.857 172.874,35.049 173.007,35.317 173.007 C 35.570 173.007,35.715 173.070,35.638 173.147 C 35.375 173.410,35.970 173.858,36.583 173.858 C 37.069 173.858,37.199 173.956,37.216 174.336 C 37.236 174.795,37.244 174.792,37.407 174.283 L 37.577 173.751 37.598 174.252 C 37.613 174.595,37.716 174.716,37.924 174.636 C 38.130 174.557,38.205 174.642,38.155 174.899 C 38.097 175.200,38.234 175.284,38.818 175.306 C 39.772 175.341,40.047 175.513,39.741 175.882 C 39.550 176.112,39.635 176.164,40.176 176.149 C 40.546 176.138,40.923 176.251,41.015 176.399 C 41.147 176.613,41.205 176.609,41.296 176.379 C 41.378 176.173,41.417 176.166,41.428 176.355 C 41.438 176.501,41.547 176.621,41.670 176.621 C 41.794 176.621,41.827 176.510,41.744 176.375 C 41.650 176.223,41.685 176.188,41.838 176.282 C 42.190 176.499,42.145 176.608,41.605 176.838 C 41.166 177.025,41.179 177.038,41.764 176.998 C 42.484 176.950,43.001 177.189,42.818 177.485 C 42.748 177.599,43.202 177.683,43.877 177.683 C 44.847 177.683,45.058 177.748,45.058 178.045 C 45.058 178.326,45.002 178.349,44.803 178.151 C 44.456 177.804,44.208 177.830,44.208 178.215 C 44.208 178.459,44.480 178.533,45.377 178.533 C 46.405 178.533,46.546 178.585,46.546 178.959 C 46.546 179.242,46.688 179.384,46.971 179.384 C 47.205 179.384,47.396 179.511,47.396 179.667 C 47.396 179.823,47.538 179.950,47.712 179.950 C 47.928 179.950,47.963 179.872,47.821 179.702 C 47.680 179.532,47.715 179.454,47.931 179.454 C 48.105 179.454,48.247 179.582,48.247 179.738 C 48.247 179.894,48.379 180.021,48.541 180.021 C 48.702 180.021,48.885 180.213,48.946 180.446 C 49.007 180.680,49.215 180.871,49.408 180.871 C 49.609 180.871,49.698 180.772,49.615 180.638 C 49.438 180.351,50.260 180.766,50.985 181.328 C 51.264 181.545,51.819 181.722,52.220 181.722 C 52.636 181.722,52.893 181.810,52.820 181.928 C 52.676 182.162,53.631 182.458,54.038 182.305 C 54.444 182.153,55.154 182.471,55.154 182.806 C 55.154 182.969,55.393 183.135,55.685 183.173 C 56.208 183.242,56.210 183.237,55.792 182.892 C 55.558 182.698,55.486 182.601,55.632 182.675 C 55.778 182.749,55.898 182.708,55.898 182.584 C 55.898 182.460,56.065 182.361,56.270 182.362 C 56.536 182.365,56.566 182.414,56.375 182.535 C 56.194 182.650,56.346 182.797,56.852 182.996 C 57.260 183.156,57.646 183.448,57.708 183.646 C 57.783 183.882,58.055 184.007,58.507 184.011 C 60.398 184.030,60.574 184.063,60.574 184.394 C 60.574 184.610,60.743 184.714,61.052 184.689 C 63.006 184.531,65.442 184.716,65.327 185.015 C 65.260 185.189,65.100 185.267,64.971 185.187 C 64.842 185.108,64.493 185.018,64.196 184.989 L 63.656 184.935 64.187 185.233 C 64.762 185.557,65.515 185.637,65.752 185.399 C 65.978 185.173,66.543 185.133,66.407 185.353 C 66.340 185.462,66.843 185.547,67.550 185.547 C 68.635 185.547,68.829 185.607,68.924 185.972 C 68.986 186.206,69.150 186.397,69.291 186.397 C 69.431 186.397,69.492 186.257,69.426 186.085 C 69.360 185.914,69.413 185.708,69.543 185.628 C 69.686 185.539,69.719 185.578,69.627 185.727 C 69.544 185.862,69.582 185.972,69.713 185.972 C 69.844 185.972,69.889 186.072,69.813 186.195 C 69.725 186.338,69.983 186.399,70.545 186.366 C 71.272 186.323,71.857 185.972,71.201 185.972 C 71.084 185.972,70.988 185.876,70.988 185.758 C 70.988 185.629,71.151 185.645,71.400 185.801 C 71.626 185.942,71.764 186.134,71.706 186.227 C 71.649 186.320,138.501 186.396,220.266 186.397 C 365.642 186.398,368.927 186.390,368.825 185.999 C 368.735 185.656,368.426 185.579,366.632 185.451 C 365.390 185.363,364.386 185.183,364.153 185.007 C 363.931 184.839,363.253 184.708,362.587 184.704 C 361.882 184.700,361.225 184.566,360.943 184.369 C 360.686 184.188,359.971 183.984,359.355 183.915 C 358.740 183.846,357.997 183.664,357.705 183.511 C 357.412 183.359,356.727 183.175,356.181 183.105 C 355.635 183.034,355.074 182.837,354.933 182.668 C 354.792 182.498,354.318 182.359,353.879 182.359 C 353.427 182.359,352.965 182.220,352.815 182.038 C 352.668 181.862,352.180 181.659,351.730 181.587 C 351.280 181.515,350.802 181.324,350.669 181.164 C 350.535 181.003,350.267 180.871,350.072 180.871 C 349.877 180.871,349.343 180.680,348.884 180.446 C 348.426 180.213,347.894 180.021,347.703 180.021 C 347.512 180.021,347.135 179.830,346.865 179.596 C 346.595 179.362,346.162 179.171,345.902 179.171 C 345.642 179.171,345.315 179.034,345.176 178.866 C 345.037 178.698,344.636 178.498,344.286 178.421 C 343.935 178.344,343.597 178.146,343.534 177.982 C 343.471 177.818,343.251 177.683,343.045 177.683 C 342.840 177.683,342.428 177.492,342.131 177.258 C 341.834 177.024,341.445 176.833,341.268 176.833 C 341.090 176.833,340.818 176.712,340.663 176.565 C 340.509 176.418,340.143 176.177,339.851 176.029 C 339.559 175.882,338.937 175.529,338.470 175.245 C 338.002 174.961,337.476 174.652,337.301 174.559 C 336.370 174.063,334.113 172.489,334.113 172.336 C 334.113 172.237,334.016 172.157,333.898 172.157 C 333.395 172.157,328.550 168.470,326.845 166.791 C 326.400 166.352,325.962 165.994,325.871 165.994 C 325.780 165.994,324.240 164.487,322.450 162.646 C 318.543 158.628,318.597 158.688,318.597 158.377 C 318.597 158.241,318.454 158.130,318.278 158.130 C 318.103 158.130,317.960 158.051,317.960 157.955 C 317.960 157.860,317.663 157.453,317.299 157.052 C 316.936 156.651,316.484 156.084,316.295 155.792 C 316.106 155.499,315.829 155.184,315.680 155.090 C 315.531 154.997,315.409 154.830,315.409 154.718 C 315.409 154.607,315.242 154.332,315.037 154.107 C 314.424 153.431,314.205 153.134,313.918 152.590 C 313.768 152.305,313.584 152.024,313.510 151.966 C 313.255 151.765,311.409 148.909,310.901 147.931 C 310.750 147.640,310.460 147.234,310.255 147.027 C 310.050 146.821,309.883 146.557,309.883 146.440 C 309.883 145.969,11.666 146.167,11.543 146.638 M13.815 150.472 C 13.815 150.759,13.714 150.851,13.491 150.766 C 13.241 150.670,13.222 150.574,13.411 150.347 C 13.738 149.952,13.815 149.976,13.815 150.472 M16.153 153.790 C 16.153 153.975,16.039 154.089,15.901 154.043 C 15.507 153.911,15.441 153.454,15.817 153.454 C 16.002 153.454,16.153 153.605,16.153 153.790 M18.491 156.897 C 18.491 157.023,18.658 157.249,18.863 157.398 C 19.067 157.548,19.171 157.733,19.093 157.811 C 19.015 157.889,18.776 157.773,18.562 157.554 C 18.132 157.114,17.896 156.299,18.264 156.527 C 18.389 156.604,18.491 156.770,18.491 156.897 M21.595 161.406 C 21.666 161.591,21.818 161.743,21.932 161.743 C 22.211 161.743,22.036 161.260,21.719 161.154 C 21.563 161.102,21.516 161.199,21.595 161.406 M36.622 173.356 C 36.475 173.740,36.048 173.617,35.960 173.166 C 35.913 172.922,36.012 172.859,36.317 172.939 C 36.578 173.007,36.695 173.167,36.622 173.356 M45.696 179.065 C 45.696 179.260,45.799 179.385,45.925 179.343 C 46.050 179.301,46.153 179.176,46.153 179.065 C 46.153 178.954,46.050 178.829,45.925 178.787 C 45.799 178.745,45.696 178.870,45.696 179.065 M53.773 181.934 C 54.030 182.101,54.000 182.141,53.613 182.143 C 53.350 182.145,53.135 182.051,53.135 181.934 C 53.135 181.668,53.361 181.668,53.773 181.934 M62.248 184.252 C 62.449 184.379,62.338 184.429,61.895 184.411 C 61.539 184.396,61.294 184.311,61.349 184.222 C 61.481 184.008,61.884 184.021,62.248 184.252 " stroke="none" fill="#accc54" fill-rule="evenodd"></path><path id="path3" d="M368.811 26.596 C 368.708 26.988,367.745 27.199,366.036 27.203 C 365.417 27.204,364.652 27.335,364.336 27.494 C 364.020 27.653,363.162 27.843,362.428 27.917 C 361.695 27.990,360.815 28.195,360.473 28.371 C 360.131 28.548,359.511 28.693,359.096 28.693 C 358.680 28.693,357.984 28.884,357.548 29.118 C 357.111 29.352,356.406 29.543,355.980 29.543 C 355.551 29.543,355.088 29.685,354.942 29.862 C 354.796 30.037,354.424 30.181,354.115 30.181 C 353.806 30.181,353.197 30.372,352.761 30.606 C 352.324 30.840,351.823 31.031,351.647 31.031 C 351.471 31.031,350.970 31.222,350.534 31.456 C 350.098 31.690,349.593 31.881,349.413 31.881 C 349.233 31.881,348.896 32.012,348.666 32.173 C 348.435 32.333,347.929 32.533,347.541 32.618 C 347.154 32.702,346.785 32.906,346.722 33.070 C 346.659 33.234,346.435 33.369,346.224 33.369 C 345.841 33.369,343.666 34.397,343.462 34.675 C 343.403 34.756,343.084 34.891,342.754 34.973 C 342.425 35.056,342.104 35.255,342.043 35.415 C 341.981 35.576,341.709 35.707,341.438 35.707 C 341.166 35.707,340.801 35.850,340.626 36.025 C 340.451 36.200,340.086 36.444,339.814 36.567 C 339.542 36.690,338.937 37.023,338.470 37.307 C 338.002 37.590,337.424 37.910,337.186 38.017 C 336.947 38.125,336.625 38.366,336.469 38.554 C 336.313 38.741,336.111 38.895,336.019 38.895 C 335.744 38.895,334.113 40.019,334.113 40.208 C 334.113 40.304,334.021 40.383,333.910 40.383 C 333.590 40.383,332.236 41.337,331.122 42.349 C 330.896 42.553,330.654 42.721,330.582 42.721 C 330.437 42.721,328.476 44.299,327.888 44.889 C 327.678 45.099,327.415 45.271,327.303 45.271 C 327.191 45.271,327.099 45.414,327.099 45.590 C 327.099 45.765,326.987 45.909,326.851 45.909 C 326.533 45.909,326.480 45.957,322.952 49.446 C 320.271 52.098,318.597 53.889,318.597 54.105 C 318.597 54.148,318.286 54.498,317.906 54.883 C 317.127 55.673,316.307 56.665,315.834 57.391 C 315.659 57.661,315.372 58.036,315.197 58.225 C 314.818 58.634,313.071 61.181,313.071 61.324 C 313.071 61.379,312.880 61.615,312.646 61.849 C 312.412 62.083,312.221 62.418,312.221 62.593 C 312.221 62.768,312.131 62.912,312.020 62.912 C 311.832 62.912,311.551 63.343,310.912 64.612 C 310.764 64.904,310.473 65.372,310.264 65.650 C 310.054 65.929,309.883 66.331,309.883 66.544 C 309.883 66.757,309.617 67.390,309.293 67.950 C 308.968 68.511,308.311 69.782,307.831 70.776 C 307.352 71.769,306.614 73.301,306.190 74.178 C 305.766 75.056,305.420 75.902,305.420 76.058 C 305.420 76.215,305.278 76.596,305.104 76.907 C 304.776 77.492,304.274 78.842,303.905 80.128 C 303.788 80.537,303.555 81.173,303.387 81.541 C 303.219 81.910,303.081 82.388,303.081 82.604 C 303.080 82.820,302.950 83.245,302.792 83.548 C 302.633 83.851,302.437 84.473,302.355 84.929 C 302.273 85.386,302.073 86.238,301.910 86.823 C 301.192 89.406,300.096 95.242,300.127 96.319 C 300.147 97.038,300.349 96.112,301.037 92.136 C 301.613 88.804,302.195 86.297,302.900 84.112 C 303.117 83.439,303.294 82.704,303.294 82.477 C 303.294 82.251,303.380 82.012,303.486 81.947 C 303.591 81.882,303.796 81.327,303.941 80.713 C 304.086 80.099,304.335 79.408,304.494 79.177 C 304.652 78.946,304.782 78.561,304.782 78.321 C 304.782 78.081,304.913 77.696,305.072 77.465 C 305.232 77.234,305.432 76.807,305.517 76.514 C 305.602 76.222,305.865 75.553,306.102 75.027 C 307.168 72.661,308.010 70.856,308.185 70.563 C 308.290 70.388,308.721 69.575,309.143 68.757 C 309.565 67.938,309.988 67.125,310.083 66.950 C 310.178 66.775,310.473 66.201,310.739 65.675 C 311.005 65.149,311.687 64.017,312.253 63.160 C 312.820 62.302,313.284 61.518,313.284 61.417 C 313.284 61.315,313.407 61.156,313.557 61.063 C 313.707 60.969,314.184 60.352,314.617 59.691 C 315.050 59.031,315.594 58.266,315.826 57.991 C 316.058 57.717,316.703 56.918,317.259 56.217 C 318.948 54.088,319.410 53.588,323.162 49.835 C 325.152 47.844,327.736 45.460,328.905 44.537 C 330.074 43.614,331.129 42.756,331.248 42.630 C 331.368 42.505,331.621 42.306,331.811 42.189 C 332.121 41.999,332.841 41.502,334.684 40.207 C 335.562 39.591,338.843 37.509,339.214 37.333 C 339.389 37.250,340.202 36.801,341.020 36.335 C 342.463 35.513,345.178 34.160,347.024 33.343 C 347.521 33.124,348.341 32.752,348.845 32.519 C 349.349 32.285,349.885 32.094,350.034 32.094 C 350.184 32.094,350.560 31.950,350.871 31.775 C 351.570 31.380,355.561 30.012,356.854 29.724 C 357.380 29.607,358.112 29.375,358.481 29.208 C 358.849 29.042,359.450 28.905,359.816 28.905 C 360.182 28.905,360.798 28.773,361.186 28.611 C 361.573 28.449,362.407 28.249,363.039 28.167 C 363.670 28.085,364.665 27.891,365.250 27.735 C 365.834 27.579,367.030 27.390,367.906 27.315 C 369.873 27.145,370.489 27.004,370.336 26.756 C 370.270 26.650,370.438 26.472,370.709 26.359 C 371.097 26.198,370.958 26.165,370.051 26.202 C 369.193 26.237,368.879 26.337,368.811 26.596 M22.124 50.728 C 22.199 51.158,22.080 51.301,21.892 51.010 C 21.768 50.818,21.684 50.792,21.682 50.944 C 21.677 51.348,22.034 51.457,22.303 51.132 C 22.476 50.923,22.482 50.793,22.322 50.694 C 22.196 50.616,22.107 50.632,22.124 50.728 M299.794 99.522 C 299.703 100.837,299.543 102.965,299.437 104.251 C 299.332 105.537,299.193 107.261,299.129 108.083 C 299.065 108.905,299.119 110.244,299.249 111.058 C 299.378 111.873,299.586 113.879,299.710 115.515 C 299.834 117.165,300.068 118.766,300.233 119.108 C 300.397 119.448,300.532 120.308,300.533 121.021 C 300.533 121.789,300.671 122.577,300.870 122.954 C 301.054 123.305,301.256 124.118,301.318 124.761 C 301.381 125.404,301.550 126.121,301.694 126.355 C 301.839 126.589,302.026 127.258,302.111 127.843 C 302.195 128.427,302.401 129.117,302.567 129.376 C 302.733 129.635,302.869 130.069,302.869 130.341 C 302.869 130.612,303.061 131.210,303.294 131.668 C 303.528 132.127,303.719 132.757,303.719 133.069 C 303.719 133.381,303.855 133.748,304.022 133.886 C 304.188 134.024,304.387 134.509,304.463 134.963 C 304.540 135.417,304.739 135.901,304.905 136.039 C 305.071 136.177,305.208 136.494,305.209 136.742 C 305.209 136.991,305.400 137.481,305.632 137.832 C 305.865 138.183,306.055 138.646,306.056 138.861 C 306.057 139.077,306.249 139.496,306.482 139.793 C 306.716 140.090,306.908 140.500,306.908 140.704 C 306.908 140.908,307.045 141.188,307.213 141.328 C 307.381 141.467,307.578 141.855,307.651 142.189 C 307.725 142.524,307.922 142.911,308.090 143.051 C 308.258 143.190,308.395 143.472,308.395 143.677 C 308.395 143.882,308.535 144.166,308.706 144.308 C 308.877 144.449,309.072 144.741,309.140 144.954 C 309.208 145.168,309.593 145.704,309.997 146.144 C 310.400 146.584,310.788 147.129,310.860 147.354 C 310.931 147.579,311.506 148.521,312.137 149.448 C 312.768 150.374,313.284 151.224,313.284 151.337 C 313.284 151.449,313.370 151.541,313.476 151.541 C 313.582 151.541,313.907 151.947,314.200 152.444 C 314.492 152.941,314.907 153.564,315.123 153.828 C 315.339 154.092,315.707 154.554,315.940 154.854 C 316.174 155.155,316.465 155.513,316.587 155.649 C 316.708 155.786,316.948 156.099,317.118 156.346 C 318.158 157.848,324.359 164.316,326.889 166.538 C 327.944 167.465,331.528 170.295,332.640 171.080 C 335.055 172.784,337.696 174.495,337.912 174.495 C 338.043 174.495,338.151 174.584,338.151 174.693 C 338.151 174.802,338.352 174.955,338.598 175.034 C 338.844 175.112,339.374 175.399,339.776 175.672 C 340.178 175.945,341.244 176.529,342.145 176.971 C 343.046 177.413,343.815 177.850,343.854 177.942 C 343.893 178.033,344.018 178.108,344.133 178.108 C 344.247 178.108,344.885 178.358,345.550 178.663 C 346.215 178.969,347.141 179.386,347.609 179.592 C 348.077 179.797,348.808 180.121,349.235 180.312 C 349.662 180.503,350.108 180.659,350.227 180.659 C 350.346 180.659,350.715 180.793,351.045 180.958 C 351.376 181.122,352.173 181.440,352.816 181.665 C 353.459 181.889,354.463 182.241,355.048 182.447 C 355.632 182.653,356.493 182.891,356.961 182.976 C 357.428 183.061,358.031 183.250,358.300 183.396 C 358.569 183.542,358.950 183.630,359.146 183.593 C 359.342 183.555,358.930 183.349,358.231 183.136 C 357.533 182.922,356.674 182.652,356.323 182.535 C 355.972 182.419,355.255 182.193,354.729 182.034 C 352.885 181.476,351.232 180.860,351.026 180.654 C 350.912 180.540,350.620 180.446,350.377 180.446 C 350.134 180.446,349.747 180.316,349.516 180.156 C 349.285 179.997,348.858 179.794,348.565 179.705 C 347.537 179.395,342.843 177.115,340.595 175.835 C 340.128 175.569,339.506 175.232,339.214 175.087 C 338.921 174.942,338.229 174.511,337.675 174.128 C 337.121 173.746,336.586 173.433,336.486 173.433 C 336.386 173.433,336.131 173.241,335.919 173.007 C 335.708 172.774,335.450 172.582,335.346 172.582 C 335.181 172.582,333.974 171.808,333.688 171.518 C 333.326 171.153,331.980 170.244,331.799 170.244 C 331.681 170.244,331.507 170.120,331.413 169.967 C 331.320 169.814,330.861 169.408,330.393 169.064 C 329.926 168.719,329.433 168.342,329.298 168.225 C 329.163 168.108,328.590 167.630,328.025 167.163 C 323.828 163.693,317.852 157.269,314.875 153.029 C 312.741 149.990,310.946 147.195,310.946 146.914 C 310.946 146.790,310.872 146.656,310.782 146.617 C 310.417 146.460,309.140 144.253,307.728 141.339 C 305.603 136.954,305.420 136.547,305.420 136.202 C 305.420 136.033,305.279 135.709,305.108 135.482 C 304.936 135.255,304.793 134.944,304.789 134.792 C 304.785 134.639,304.602 134.113,304.381 133.623 C 304.161 133.132,303.910 132.396,303.825 131.987 C 303.740 131.578,303.585 131.138,303.482 131.008 C 303.378 130.879,303.207 130.353,303.101 129.839 C 302.996 129.326,302.809 128.618,302.686 128.268 C 302.150 126.745,301.076 122.082,300.630 119.341 C 300.186 116.616,299.485 107.165,299.677 106.495 C 299.857 105.871,300.210 97.131,300.056 97.131 C 300.002 97.131,299.885 98.207,299.794 99.522 M360.262 183.817 C 360.675 183.905,361.130 184.050,361.273 184.138 C 361.415 184.226,362.321 184.427,363.285 184.584 C 364.249 184.741,365.420 184.972,365.887 185.097 C 366.355 185.222,367.180 185.327,367.721 185.330 C 369.128 185.337,370.032 185.555,370.032 185.889 C 370.032 186.234,371.047 186.530,371.314 186.263 C 371.766 185.811,371.077 185.486,369.259 185.292 C 367.423 185.097,363.771 184.449,362.062 184.017 C 361.594 183.899,360.829 183.769,360.361 183.729 L 359.511 183.656 360.262 183.817 " stroke="none" fill="#c4e47a" fill-rule="evenodd"></path><path id="path4" d="M370.709 26.367 C 370.438 26.475,370.270 26.650,370.336 26.756 C 370.489 27.004,369.873 27.145,367.906 27.315 C 367.030 27.390,365.834 27.579,365.250 27.735 C 364.665 27.891,363.670 28.085,363.039 28.167 C 362.407 28.249,361.573 28.449,361.186 28.611 C 360.798 28.773,360.182 28.905,359.816 28.905 C 359.450 28.905,358.849 29.042,358.481 29.208 C 358.112 29.375,357.380 29.607,356.854 29.724 C 355.561 30.012,351.570 31.380,350.871 31.775 C 350.560 31.950,350.184 32.094,350.034 32.094 C 349.885 32.094,349.349 32.285,348.845 32.519 C 348.341 32.752,347.521 33.124,347.024 33.343 C 345.178 34.160,342.463 35.513,341.020 36.335 C 340.202 36.801,339.389 37.250,339.214 37.333 C 338.843 37.509,335.562 39.591,334.684 40.207 C 332.841 41.502,332.121 41.999,331.811 42.189 C 331.621 42.306,331.368 42.505,331.248 42.630 C 331.129 42.756,330.074 43.614,328.905 44.537 C 327.736 45.460,325.152 47.844,323.162 49.835 C 319.410 53.588,318.948 54.088,317.259 56.217 C 316.703 56.918,316.058 57.717,315.826 57.991 C 315.594 58.266,315.050 59.031,314.617 59.691 C 314.184 60.352,313.707 60.969,313.557 61.063 C 313.407 61.156,313.284 61.324,313.284 61.437 C 313.284 61.549,312.966 62.094,312.579 62.648 C 311.644 63.983,310.308 66.280,310.308 66.552 C 310.308 67.068,311.094 65.925,311.897 64.240 C 312.079 63.860,312.321 63.549,312.436 63.549 C 312.552 63.549,312.646 63.457,312.646 63.344 C 312.646 63.167,314.249 60.669,314.559 60.361 C 314.618 60.303,314.948 59.825,315.292 59.299 C 315.637 58.773,316.022 58.247,316.149 58.130 C 316.277 58.013,317.186 56.918,318.171 55.697 C 319.155 54.476,320.252 53.176,320.607 52.807 C 320.963 52.439,321.662 51.692,322.162 51.148 C 322.661 50.604,323.096 50.159,323.128 50.159 C 323.160 50.159,323.908 49.466,324.790 48.618 C 326.603 46.877,328.064 45.600,330.074 43.998 C 330.834 43.393,331.488 42.810,331.527 42.703 C 331.566 42.596,331.715 42.508,331.859 42.508 C 332.100 42.508,334.490 40.844,335.137 40.226 C 335.292 40.078,335.500 39.957,335.600 39.957 C 335.701 39.957,335.909 39.837,336.063 39.689 C 336.218 39.542,336.583 39.299,336.876 39.150 C 337.839 38.657,338.419 38.298,338.552 38.113 C 338.623 38.012,338.921 37.810,339.214 37.664 C 339.506 37.518,340.128 37.166,340.595 36.882 C 341.063 36.597,341.589 36.304,341.764 36.229 C 342.190 36.049,344.127 35.089,344.527 34.860 C 345.379 34.373,346.696 33.794,346.952 33.794 C 347.109 33.794,347.352 33.657,347.491 33.489 C 347.631 33.321,348.049 33.117,348.421 33.036 C 348.792 32.956,349.285 32.758,349.516 32.598 C 349.747 32.437,350.083 32.306,350.263 32.306 C 350.443 32.306,350.948 32.115,351.384 31.881 C 351.820 31.647,352.330 31.456,352.518 31.456 C 352.705 31.456,353.160 31.323,353.528 31.160 C 354.560 30.704,356.218 30.173,357.324 29.946 C 357.874 29.832,358.592 29.600,358.918 29.430 C 359.244 29.260,359.771 29.120,360.088 29.119 C 360.406 29.119,361.075 28.983,361.576 28.818 C 362.077 28.653,363.013 28.454,363.656 28.376 C 364.299 28.298,365.303 28.104,365.887 27.945 C 366.472 27.785,367.954 27.557,369.182 27.437 C 370.409 27.318,371.605 27.176,371.838 27.122 C 372.072 27.069,372.299 27.018,372.343 27.009 C 372.386 27.000,372.291 26.831,372.130 26.633 C 371.932 26.389,371.924 26.325,372.104 26.433 C 372.250 26.521,372.370 26.491,372.370 26.367 C 372.370 26.095,371.388 26.094,370.709 26.367 M397.237 36.459 C 397.237 36.523,397.428 36.780,397.662 37.031 C 397.896 37.282,398.087 37.380,398.087 37.250 C 398.087 37.119,397.937 36.862,397.753 36.678 C 397.408 36.333,397.237 36.260,397.237 36.459 M309.898 67.251 C 309.740 67.442,309.673 67.661,309.750 67.738 C 309.949 67.937,310.373 67.464,310.271 67.158 C 310.213 66.982,310.097 67.011,309.898 67.251 M377.683 67.372 C 377.683 67.491,377.970 67.588,378.321 67.588 C 378.672 67.588,378.959 67.512,378.959 67.420 C 378.959 67.328,378.672 67.231,378.321 67.204 C 377.970 67.178,377.683 67.253,377.683 67.372 M308.948 69.129 C 308.629 69.742,308.284 70.388,308.181 70.563 C 308.008 70.858,307.141 72.720,306.102 75.027 C 305.865 75.553,305.602 76.222,305.517 76.514 C 305.432 76.807,305.232 77.234,305.072 77.465 C 304.913 77.696,304.782 78.084,304.782 78.328 C 304.782 78.571,304.642 78.957,304.470 79.184 C 304.043 79.749,304.030 80.274,304.453 79.924 C 304.623 79.783,304.825 79.245,304.902 78.729 C 304.980 78.212,305.124 77.790,305.223 77.790 C 305.322 77.790,305.520 77.383,305.663 76.886 C 305.806 76.389,306.049 75.794,306.203 75.564 C 306.357 75.333,306.485 74.998,306.487 74.820 C 306.490 74.641,306.679 74.256,306.908 73.964 C 307.136 73.672,307.325 73.229,307.328 72.980 C 307.330 72.732,307.467 72.417,307.631 72.281 C 307.794 72.145,307.993 71.774,308.072 71.458 C 308.151 71.141,308.341 70.739,308.493 70.563 C 308.645 70.388,308.842 70.010,308.930 69.723 C 309.017 69.436,309.220 69.071,309.380 68.911 C 309.635 68.655,309.792 68.013,309.599 68.013 C 309.560 68.013,309.267 68.515,308.948 69.129 M303.963 80.659 C 303.944 80.893,303.786 81.358,303.612 81.693 C 303.437 82.028,303.296 82.410,303.297 82.543 C 303.299 82.676,303.116 83.406,302.890 84.166 C 301.755 87.980,301.535 89.059,302.109 87.991 C 302.267 87.699,302.466 86.936,302.553 86.296 C 302.639 85.656,302.830 84.939,302.977 84.702 C 303.124 84.466,303.305 83.859,303.380 83.354 C 303.455 82.849,303.665 82.209,303.846 81.933 C 304.027 81.656,304.135 81.161,304.086 80.832 C 304.031 80.467,303.983 80.399,303.963 80.659 M301.630 88.948 C 301.611 89.182,301.456 89.995,301.285 90.755 C 300.586 93.874,300.114 97.855,299.989 101.700 C 299.917 103.921,299.781 106.038,299.687 106.404 C 299.488 107.182,300.166 116.494,300.630 119.341 C 301.076 122.082,302.150 126.745,302.686 128.268 C 302.809 128.618,302.996 129.326,303.101 129.839 C 303.207 130.353,303.378 130.879,303.482 131.008 C 303.585 131.138,303.740 131.578,303.825 131.987 C 303.910 132.396,304.161 133.132,304.381 133.623 C 304.602 134.113,304.785 134.639,304.789 134.792 C 304.793 134.944,304.936 135.255,305.108 135.482 C 305.279 135.709,305.420 136.033,305.420 136.202 C 305.420 136.547,305.603 136.954,307.728 141.339 C 309.140 144.253,310.417 146.460,310.782 146.617 C 310.872 146.656,310.946 146.790,310.946 146.914 C 310.946 147.195,312.741 149.990,314.875 153.029 C 317.852 157.269,323.828 163.693,328.025 167.163 C 328.590 167.630,329.163 168.108,329.298 168.225 C 329.433 168.342,329.926 168.719,330.393 169.064 C 330.861 169.408,331.320 169.814,331.413 169.967 C 331.507 170.120,331.681 170.244,331.799 170.244 C 331.980 170.244,333.326 171.153,333.688 171.518 C 333.974 171.808,335.181 172.582,335.346 172.582 C 335.450 172.582,335.708 172.774,335.919 173.007 C 336.131 173.241,336.386 173.433,336.486 173.433 C 336.586 173.433,337.121 173.746,337.675 174.128 C 338.229 174.511,338.921 174.942,339.214 175.087 C 339.506 175.232,340.128 175.569,340.595 175.835 C 342.843 177.115,347.537 179.395,348.565 179.705 C 348.858 179.794,349.285 179.997,349.516 180.156 C 349.747 180.316,350.129 180.449,350.366 180.453 C 350.603 180.457,350.983 180.600,351.210 180.772 C 351.738 181.172,352.095 181.176,351.765 180.779 C 351.626 180.611,351.241 180.414,350.909 180.341 C 350.578 180.269,349.943 180.023,349.498 179.796 C 349.052 179.569,348.529 179.384,348.334 179.384 C 348.139 179.384,347.861 179.240,347.715 179.065 C 347.570 178.889,347.235 178.746,346.971 178.746 C 346.708 178.746,346.373 178.603,346.227 178.427 C 346.082 178.252,345.873 178.108,345.763 178.108 C 345.523 178.108,343.017 176.891,341.817 176.191 C 341.613 176.072,341.158 175.829,340.808 175.651 C 340.457 175.474,339.787 175.098,339.320 174.816 C 338.852 174.535,338.274 174.214,338.036 174.103 C 337.797 173.992,337.475 173.748,337.319 173.561 C 337.163 173.373,336.857 173.220,336.637 173.220 C 336.418 173.220,336.238 173.140,336.238 173.042 C 336.238 172.944,335.640 172.473,334.910 171.995 C 333.003 170.748,331.089 169.394,330.669 168.994 C 330.242 168.588,330.066 168.441,328.441 167.133 C 326.718 165.746,326.925 165.939,323.220 162.282 C 321.379 160.465,319.872 158.887,319.872 158.777 C 319.872 158.666,319.735 158.499,319.568 158.405 C 319.400 158.312,318.624 157.422,317.842 156.429 C 317.061 155.435,316.356 154.575,316.276 154.516 C 316.195 154.458,315.808 153.908,315.415 153.294 C 315.022 152.681,314.620 152.179,314.523 152.179 C 314.426 152.179,314.346 152.088,314.346 151.977 C 314.346 151.866,314.036 151.329,313.656 150.785 C 312.601 149.274,312.246 148.714,312.025 148.214 C 311.913 147.962,311.719 147.693,311.593 147.615 C 311.467 147.537,311.219 147.169,311.041 146.797 C 310.427 145.513,310.072 144.952,309.872 144.952 C 309.761 144.952,309.669 144.833,309.667 144.687 C 309.665 144.540,309.384 143.895,309.042 143.252 C 308.433 142.105,307.743 140.688,306.870 138.789 C 306.629 138.262,306.251 137.478,306.032 137.046 C 305.812 136.614,305.632 136.111,305.632 135.929 C 305.632 135.748,305.441 135.242,305.207 134.806 C 304.973 134.370,304.782 133.808,304.782 133.557 C 304.782 133.307,304.639 132.983,304.463 132.837 C 304.288 132.692,304.141 132.322,304.137 132.014 C 304.133 131.707,303.945 131.073,303.719 130.606 C 303.494 130.138,303.305 129.516,303.300 129.224 C 303.296 128.932,303.159 128.438,302.996 128.126 C 302.833 127.814,302.636 127.144,302.559 126.638 C 302.481 126.132,302.286 125.287,302.125 124.761 C 301.856 123.883,301.728 123.271,301.170 120.191 C 300.875 118.569,300.518 116.137,300.280 114.134 C 299.992 111.715,300.198 97.681,300.534 96.812 C 300.669 96.461,300.865 95.292,300.969 94.213 C 301.072 93.135,301.310 91.785,301.496 91.215 C 301.683 90.644,301.798 89.805,301.751 89.350 C 301.704 88.895,301.650 88.714,301.630 88.948 M347.038 128.374 C 347.231 128.710,347.410 128.962,347.437 128.936 C 347.576 128.796,347.209 127.964,346.968 127.871 C 346.765 127.793,346.784 127.931,347.038 128.374 M351.324 133.403 C 351.445 133.463,351.480 133.623,351.402 133.759 C 351.324 133.895,351.338 133.936,351.433 133.850 C 351.528 133.764,351.745 133.860,351.915 134.063 C 352.187 134.386,352.188 134.368,351.918 133.912 C 351.749 133.626,351.497 133.370,351.358 133.343 C 351.219 133.316,351.204 133.343,351.324 133.403 M352.922 181.426 C 353.390 181.604,354.203 181.878,354.729 182.036 C 355.255 182.194,355.972 182.417,356.323 182.532 C 359.150 183.455,359.789 183.635,360.255 183.638 C 360.547 183.639,361.169 183.779,361.637 183.947 C 362.104 184.116,362.774 184.246,363.124 184.238 C 363.552 184.228,363.622 184.190,363.337 184.123 C 363.103 184.068,362.502 183.888,362.001 183.723 C 361.500 183.557,360.735 183.419,360.301 183.415 C 359.866 183.411,359.331 183.272,359.111 183.105 C 358.890 182.938,358.268 182.740,357.729 182.664 C 357.190 182.588,356.557 182.407,356.323 182.262 C 356.089 182.117,355.520 181.928,355.059 181.842 C 354.597 181.757,354.026 181.551,353.789 181.385 C 353.553 181.220,353.070 181.088,352.716 181.093 C 352.086 181.102,352.090 181.109,352.922 181.426 M365.569 184.701 C 366.562 184.918,368.223 185.184,369.259 185.294 C 371.022 185.480,371.672 185.766,371.387 186.228 C 371.329 186.321,371.757 186.397,372.338 186.397 C 373.160 186.397,373.384 186.326,373.348 186.076 C 373.257 185.459,372.875 185.350,369.924 185.106 C 368.288 184.971,366.589 184.728,366.149 184.566 C 365.708 184.404,364.991 184.280,364.555 184.290 C 363.963 184.303,364.219 184.408,365.569 184.701 " stroke="none" fill="#ccec8c" fill-rule="evenodd"></path></g></svg>